<svg width="735" height="619" viewBox="0 0 735 619" fill="none" xmlns="http://www.w3.org/2000/svg">
<path d="M144.278 203.15C145.128 204.264 145.185 205.65 145.565 206.924C146.35 208.545 146.891 210.274 147.17 212.053C147.75 212.734 148.072 213.597 148.079 214.492C149.595 218.612 150.713 222.858 151.958 227.062C152.704 229.58 153.213 232.01 155.468 234.003C155.89 234.376 156.309 234.755 156.73 235.132C156.193 235.59 155.654 236.047 155.114 236.503C152.137 233.766 149.124 231.066 146.075 228.403C145.45 227.854 144.703 227.461 143.896 227.256C141.734 226.671 139.562 226.083 137.468 225.299C133.695 223.892 129.567 223.742 125.702 224.872C120.752 226.207 115.835 227.672 110.675 228.124C103.641 228.734 96.599 228.657 89.556 228.751C85.5899 228.963 81.6369 228.139 78.086 226.36C76.8597 225.784 75.8688 224.804 75.2794 223.584C74.69 222.364 74.538 220.979 74.849 219.66C75.738 215.56 78.826 213.675 82.349 212.76C93.2714 209.967 104.782 210.524 115.383 214.36C123.5 217.151 131.483 220.299 139.499 223.533C139.512 222.557 138.72 222.313 138.218 221.905C131.102 216.151 123.688 210.799 116.044 205.779C113.214 203.92 110.502 201.551 106.72 201.748C106.019 201.745 105.321 201.65 104.645 201.466C96.777 199.756 89.335 200.766 81.818 203.813C74.338 206.85 66.447 208.833 58.168 207.605C57.6856 207.591 57.2119 207.473 56.779 207.26C55.7935 206.791 54.8535 206.233 53.971 205.591C50.7 202.743 49.579 198.924 54.149 195.926C56.8299 194.209 59.8527 193.098 63.007 192.668C70.743 191.491 78.381 192.64 85.997 193.821C90.571 194.53 95.106 195.496 100.136 196.438C97.6337 194.847 95.0309 193.419 92.344 192.164C87.1612 189.493 81.8355 187.11 76.391 185.024C73.928 184.084 71.52 182.437 68.756 182.84C55.8076 184.81 42.657 185.074 29.64 183.626C20.609 182.577 11.694 180.939 3.50897 176.683C2.00397 175.901 0.143974 175.151 0.00897441 173.153C-0.134026 171.041 1.79497 170.384 3.25997 169.5C3.64711 169.286 4.05316 169.107 4.47297 168.967C11.941 166.14 19.783 165.633 27.642 165.244C31.5433 165.06 35.4507 165.443 39.242 166.381C46.07 168.041 52.387 170.935 58.648 174.041C63.34 176.371 67.461 179.723 72.548 181.378C76.6162 182.739 80.6118 184.307 84.519 186.078C91.5461 189.191 98.3962 192.69 105.038 196.558C110.092 199.503 115.094 202.525 119.909 205.858C121.119 206.693 122.379 207.458 123.616 208.252C121.467 205.077 118.962 202.158 116.151 199.552C105.919 189.92 94.056 182.515 82.301 174.974C77.301 171.768 72.301 168.588 68.757 163.656C67.319 161.656 65.802 159.318 67.097 156.979C68.322 154.768 70.971 154.852 73.339 155.079C76.0139 155.413 78.5966 156.272 80.939 157.606C91.423 163.175 99.309 171.621 106.171 181.073C111.558 188.493 115.771 196.734 121.948 203.617C124.948 206.966 127.548 210.706 131.012 213.61C134.659 216.674 138.523 219.482 142.267 222.434C144.667 224.334 147.026 226.287 149.59 228.368C149.836 225.957 149.69 223.912 147.948 222.255C146.78 221.144 145.587 220.055 144.515 218.849C138.164 211.73 131.615 204.799 124.868 198.055C120.521 193.915 117.693 188.433 116.838 182.491C116.425 179.437 117.796 176.951 120.45 175.981C122.557 175.204 124.879 175.246 126.956 176.099C131.607 177.926 134.376 181.699 136.84 185.742C140.147 191.178 142.191 197.177 144.278 203.15Z" fill="#FBF5FF"/>
<path d="M153.166 248.695C154.151 247.695 154.383 246.331 154.922 245.115C155.907 243.607 156.663 241.961 157.166 240.231C157.826 239.63 158.254 238.816 158.376 237.931C160.403 234.031 162.05 229.966 163.819 225.954C164.878 223.554 165.691 221.206 168.181 219.516C168.648 219.198 169.112 218.876 169.581 218.555C169.105 218.033 168.629 217.509 168.15 216.99C164.85 219.327 161.519 221.622 158.158 223.873C157.467 224.338 156.676 224.633 155.85 224.735C153.632 225.035 151.403 225.348 149.227 225.86C145.305 226.777 141.193 226.402 137.502 224.79C132.761 222.837 128.071 220.756 123.009 219.657C116.109 218.157 109.115 217.343 102.141 216.357C98.2337 215.644 94.2081 215.959 90.4599 217.273C89.1689 217.688 88.0601 218.535 87.3203 219.671C86.5805 220.808 86.2548 222.165 86.3979 223.513C86.7589 227.696 89.5829 229.953 92.9589 231.307C103.438 235.466 114.926 236.376 125.929 233.918C134.329 232.18 142.647 230.069 151.013 227.879C150.903 228.849 150.085 228.992 149.535 229.331C141.748 234.131 133.713 238.504 125.497 242.512C122.452 243.998 119.461 246.003 115.735 245.327C115.04 245.241 114.336 245.247 113.642 245.343C105.621 246.043 98.3659 244.099 91.2979 240.119C84.2629 236.157 76.6859 233.188 68.3189 233.355C67.8392 233.308 67.355 233.365 66.8989 233.521C65.8609 233.861 64.8566 234.296 63.8989 234.821C60.2929 237.23 58.6989 240.876 62.8499 244.431C65.2915 246.473 68.1483 247.96 71.2219 248.787C78.7469 250.931 86.4659 250.765 94.1659 250.557C98.7929 250.433 103.413 250.05 108.523 249.757C105.839 251.017 103.077 252.103 100.253 253.008C94.7732 254.999 89.1881 256.687 83.5229 258.064C80.9619 258.685 78.3629 260.012 75.6729 259.264C63.0793 255.667 50.0684 253.736 36.9729 253.521C27.8809 253.415 18.8319 253.909 10.1729 257.091C8.57992 257.676 6.63992 258.183 6.25292 260.148C5.84392 262.225 7.67291 263.121 9.01391 264.185C9.37154 264.445 9.75133 264.674 10.1489 264.868C17.1979 268.618 24.9129 270.116 32.6579 271.5C36.5034 272.178 40.427 272.295 44.3059 271.845C51.2889 271.065 57.9229 268.996 64.5269 266.709C69.4769 264.993 73.9909 262.192 79.2419 261.195C83.45 260.36 87.6125 259.31 91.7129 258.049C99.0783 255.853 106.317 253.252 113.396 250.259C118.784 247.978 124.129 245.615 129.328 242.927C130.633 242.251 131.98 241.655 133.31 241.022C130.775 243.896 127.92 246.472 124.801 248.699C113.429 256.956 100.722 262.799 88.1009 268.783C82.7379 271.328 77.3689 273.849 73.2329 278.292C71.5499 280.097 69.7499 282.22 70.7329 284.705C71.6669 287.052 74.3059 287.305 76.6839 287.38C79.379 287.388 82.0491 286.864 84.5409 285.837C95.6409 281.644 104.541 274.267 112.541 265.762C118.826 259.085 124.05 251.447 131.051 245.402C134.457 242.462 137.51 239.083 141.311 236.639C145.318 234.063 149.511 231.77 153.594 229.316C156.218 227.741 158.803 226.098 161.611 224.359C161.55 226.782 161.143 228.791 159.211 230.214C157.911 231.169 156.59 232.103 155.374 233.157C148.174 239.412 140.798 245.456 133.247 251.289C128.41 254.843 124.909 259.922 123.309 265.707C122.509 268.685 123.554 271.323 126.064 272.623C128.055 273.661 130.363 273.914 132.532 273.332C137.377 272.11 140.602 268.716 143.561 265.021C147.552 260.044 150.34 254.353 153.166 248.695Z" fill="#FBF5FF"/>
<path d="M587.873 515.486C587.673 514.099 588.298 512.861 588.586 511.563C588.692 509.765 589.062 507.992 589.686 506.302C589.512 505.424 589.654 504.513 590.086 503.73C590.768 499.392 591.858 495.14 592.819 490.86C593.393 488.299 594.132 485.928 593.134 483.091C592.946 482.557 592.766 482.023 592.581 481.491C593.275 481.352 593.967 481.214 594.66 481.081C595.927 484.921 597.244 488.745 598.612 492.553C598.891 493.338 599.352 494.046 599.958 494.618C601.558 496.18 603.171 497.752 604.618 499.456C607.228 502.522 610.76 504.661 614.686 505.556C619.66 506.8 624.67 507.91 629.395 510.033C635.835 512.926 641.948 516.424 648.145 519.771C651.713 521.517 654.765 524.162 656.999 527.446C657.791 528.546 658.18 529.886 658.1 531.239C658.021 532.592 657.477 533.877 656.562 534.877C653.786 538.029 650.174 538.168 646.652 537.252C635.752 534.374 625.969 528.284 618.577 519.772C612.849 513.383 607.413 506.747 601.983 500.016C601.497 500.862 602.068 501.462 602.31 502.061C605.722 510.551 609.591 518.837 613.822 526.944C615.388 529.944 616.604 533.336 620.004 535.006C620.614 535.35 621.177 535.772 621.678 536.262C627.718 541.588 634.707 544.334 642.758 545.329C650.77 546.319 658.629 548.429 665.258 553.535C665.743 553.715 665.958 554.182 666.304 554.512C666.936 555.402 667.484 556.348 667.942 557.339C669.413 561.419 668.531 565.299 663.08 565.693C659.902 565.887 656.721 565.387 653.756 564.227C646.425 561.485 640.315 556.762 634.239 552.027C630.589 549.179 627.099 546.127 623.164 542.856C624.574 545.465 626.152 547.979 627.887 550.384C631.114 555.239 634.604 559.912 638.344 564.384C640.037 566.404 641.338 569.016 643.944 570.009C656.213 574.594 667.827 580.768 678.49 588.373C685.867 593.687 692.856 599.458 697.932 607.162C698.866 608.579 700.125 610.14 699.27 611.949C698.37 613.863 696.361 613.497 694.652 613.557C694.209 613.555 693.768 613.513 693.333 613.432C685.433 612.264 678.333 608.887 671.283 605.402C667.787 603.662 664.562 601.425 661.709 598.759C656.553 593.985 652.445 588.381 648.49 582.618C645.526 578.298 643.558 573.363 639.926 569.443C637.035 566.273 634.31 562.955 631.76 559.505C627.139 553.364 622.86 546.973 618.943 540.361C615.962 535.326 613.065 530.25 610.48 524.999C609.831 523.68 609.102 522.399 608.408 521.099C608.74 524.917 609.507 528.685 610.695 532.329C614.939 545.729 621.695 557.969 628.289 570.281C631.089 575.514 633.916 580.731 634.605 586.76C634.885 589.213 635.075 591.989 632.805 593.401C630.66 594.736 628.386 593.373 626.429 592.02C624.258 590.425 622.423 588.418 621.029 586.113C614.585 576.145 611.811 564.927 610.421 553.33C609.329 544.23 609.663 534.978 607.621 525.956C606.621 521.569 606.177 517.037 604.57 512.813C602.877 508.36 600.87 504.028 599.037 499.626C597.861 496.799 596.756 493.944 595.531 490.877C594.141 492.861 593.275 494.721 593.987 497.016C594.466 498.556 594.974 500.092 595.327 501.663C597.406 510.973 599.751 520.216 602.361 529.392C604.14 535.124 603.94 541.287 601.794 546.892C600.668 549.762 598.26 551.266 595.469 550.82C593.251 550.473 591.244 549.305 589.845 547.549C586.672 543.688 586.093 539.043 585.907 534.313C585.65 527.952 586.788 521.718 587.873 515.486Z" fill="#FBF5FF"/>
<path d="M621.153 397.873C619.753 397.883 618.621 398.684 617.38 399.163C615.617 399.534 613.918 400.163 612.339 401.031C611.446 400.989 610.567 401.263 609.855 401.804C605.666 403.126 601.625 404.837 597.537 406.424C595.088 407.374 592.856 408.457 589.899 407.893C589.344 407.786 588.789 407.687 588.233 407.584C588.199 408.289 588.166 408.995 588.133 409.702C592.119 410.382 596.097 411.115 600.066 411.902C600.884 412.061 601.652 412.412 602.308 412.925C604.092 414.278 605.885 415.635 607.786 416.813C611.208 418.938 613.851 422.112 615.322 425.861C617.291 430.593 619.136 435.381 621.939 439.737C625.758 445.674 630.127 451.198 634.361 456.828C636.618 460.096 639.688 462.719 643.268 464.439C644.474 465.058 645.856 465.244 647.183 464.963C648.509 464.683 649.699 463.955 650.551 462.901C653.251 459.686 652.851 456.094 651.424 452.748C646.955 442.398 639.475 433.632 629.957 427.589C622.785 422.877 615.414 418.489 607.95 414.123C608.712 413.516 609.391 413.992 610.021 414.141C618.921 416.25 627.694 418.841 636.34 421.819C639.54 422.919 643.075 423.619 645.232 426.73C645.663 427.283 646.165 427.776 646.724 428.199C652.889 433.377 656.646 439.88 658.83 447.693C661.004 455.468 664.262 462.924 670.296 468.724C670.548 469.175 671.04 469.324 671.418 469.61C672.392 470.103 673.41 470.505 674.458 470.81C678.711 471.656 682.417 470.21 681.994 464.756C681.712 461.586 680.743 458.515 679.155 455.756C675.355 448.916 669.772 443.577 664.181 438.274C660.822 435.089 657.281 432.094 653.463 428.688C656.252 429.695 658.974 430.881 661.61 432.238C666.892 434.705 672.035 437.461 677.015 440.493C679.265 441.865 682.041 442.763 683.415 445.193C689.775 456.641 697.609 467.207 706.715 476.619C713.069 483.119 719.815 489.174 728.189 493.046C729.73 493.758 731.461 494.771 733.124 493.656C734.881 492.476 734.224 490.549 734.024 488.849C733.955 488.412 733.848 487.981 733.703 487.563C731.37 479.927 726.975 473.412 722.477 466.957C720.237 463.759 717.544 460.903 714.484 458.478C708.994 454.091 702.841 450.863 696.553 447.81C691.841 445.522 686.667 444.31 682.253 441.303C678.687 438.918 675.001 436.717 671.209 434.709C664.448 431.054 657.491 427.775 650.369 424.886C644.946 422.686 639.496 420.579 633.918 418.806C632.518 418.36 631.143 417.829 629.757 417.337C633.582 417.097 637.422 417.295 641.202 417.926C655.081 420.126 668.194 424.985 681.35 429.672C686.943 431.665 692.522 433.679 698.587 433.463C701.054 433.375 703.828 433.148 704.887 430.693C705.887 428.373 704.199 426.328 702.57 424.593C700.67 422.682 698.412 421.164 695.924 420.128C685.107 415.241 673.601 414.168 661.924 414.52C652.759 414.797 643.663 416.506 634.438 415.828C629.951 415.498 625.402 415.728 620.988 414.769C616.332 413.758 611.749 412.416 607.123 411.262C604.153 410.521 601.163 409.854 597.949 409.099C599.705 407.428 601.414 406.299 603.791 406.658C605.384 406.901 606.979 407.177 608.584 407.289C618.1 407.96 627.589 408.902 637.051 410.114C642.985 411.022 649.052 409.906 654.275 406.947C656.945 405.408 658.075 402.801 657.217 400.109C656.544 397.967 655.09 396.156 653.145 395.034C648.855 392.473 644.173 392.59 639.47 393.113C633.15 393.82 627.155 395.873 621.153 397.873Z" fill="#FBF5FF"/>
<path d="M189.445 151.824C188.605 152.946 187.288 153.38 186.166 154.094C184.82 155.291 183.306 156.284 181.671 157.04C181.173 157.783 180.43 158.328 179.571 158.578C176.022 161.163 172.243 163.398 168.539 165.744C166.321 167.149 164.122 168.302 162.821 171.016C162.576 171.526 162.327 172.032 162.08 172.541C161.492 172.148 160.905 171.755 160.32 171.36C162.14 167.749 163.913 164.113 165.638 160.454C165.995 159.702 166.17 158.877 166.147 158.045C166.117 155.806 166.09 153.556 166.272 151.328C166.596 147.314 165.614 143.303 163.472 139.892C160.835 135.492 158.078 131.168 156.237 126.326C153.729 119.726 151.88 112.931 149.866 106.181C148.577 102.424 148.29 98.396 149.032 94.494C149.25 93.156 149.922 91.9339 150.936 91.0333C151.949 90.1327 153.242 89.6085 154.596 89.549C158.786 89.282 161.439 91.739 163.281 94.876C168.954 104.619 171.564 115.843 170.773 127.089C170.306 135.658 169.457 144.189 168.537 152.789C169.48 152.535 169.499 151.706 169.753 151.112C173.344 142.695 176.467 134.1 179.208 125.378C180.222 122.147 181.76 118.89 180.537 115.306C180.348 114.631 180.247 113.935 180.237 113.234C179.737 105.198 176.731 98.313 171.743 91.917C166.778 85.552 162.713 78.502 161.633 70.201C161.514 69.7337 161.498 69.2462 161.585 68.772C161.767 67.6958 162.047 66.6387 162.423 65.614C164.27 61.691 167.637 59.569 171.77 63.145C174.153 65.2552 176.048 67.8588 177.324 70.775C180.569 77.897 181.55 85.557 182.496 93.205C183.063 97.8 183.372 102.424 183.842 107.522C184.689 104.68 185.351 101.786 185.825 98.859C186.978 93.1427 187.816 87.3673 188.334 81.559C188.565 78.933 189.492 76.166 188.347 73.618C182.917 61.7021 179.071 49.1261 176.909 36.211C175.45 27.238 174.589 18.211 176.447 9.17899C176.789 7.51599 177.002 5.523 178.888 4.847C180.88 4.134 182.039 5.80899 183.288 6.97599C183.6 7.29015 183.883 7.6315 184.134 7.99599C188.891 14.409 191.523 21.814 194.045 29.266C195.288 32.9677 195.987 36.8304 196.12 40.733C196.389 47.755 195.331 54.623 194.052 61.494C193.094 66.645 190.995 71.526 190.793 76.867C190.594 81.1523 190.175 85.4246 189.538 89.667C188.463 97.2769 186.97 104.822 185.064 112.267C183.611 117.934 182.072 123.573 180.186 129.114C179.713 130.506 179.324 131.926 178.896 133.334C181.361 130.399 183.483 127.193 185.22 123.776C191.691 111.302 195.573 97.868 199.62 84.499C201.339 78.817 203.03 73.132 206.807 68.379C208.342 66.447 210.172 64.351 212.777 64.957C215.237 65.531 215.877 68.103 216.308 70.444C216.718 73.108 216.597 75.8267 215.953 78.444C213.46 90.044 207.49 99.944 200.273 109.127C194.607 116.335 187.832 122.639 182.897 130.462C180.497 134.268 177.61 137.791 175.76 141.911C173.809 146.258 172.166 150.742 170.348 155.149C169.181 157.979 167.942 160.78 166.641 163.815C169.026 163.394 170.954 162.692 172.073 160.566C172.823 159.138 173.55 157.691 174.412 156.334C179.524 148.279 184.402 140.085 189.046 131.753C191.84 126.44 196.341 122.222 201.823 119.777C204.648 118.543 207.414 119.183 209.072 121.472C210.396 123.286 210.99 125.531 210.737 127.763C210.251 132.737 207.375 136.432 204.161 139.906C199.833 144.58 194.62 148.184 189.445 151.824Z" fill="#FBF5FF"/>
<path d="M127.401 204.672C128.79 206.043 130.693 206.372 132.386 207.118C134.487 208.488 136.778 209.541 139.186 210.242C140.024 211.163 141.159 211.759 142.393 211.926C147.819 214.75 153.483 217.044 159.072 219.507C162.418 220.982 165.684 222.115 168.038 225.581C168.481 226.231 168.93 226.881 169.376 227.525C170.104 226.864 170.83 226.201 171.555 225.535C168.3 220.939 165.105 216.3 161.97 211.618C161.322 210.657 160.91 209.556 160.77 208.405C160.345 205.316 159.915 202.211 159.204 199.181C157.926 193.72 158.448 187.991 160.693 182.851C163.412 176.251 166.311 169.719 167.842 162.669C169.928 153.062 171.064 143.321 172.442 133.608C173.225 128.078 173.209 122.629 171.167 117.342C169.967 114.235 167.226 111.275 162.479 111.685C156.654 112.185 153.509 116.12 151.623 120.822C145.656 135.693 144.747 151.068 147.988 166.736C150.409 178.436 153.346 190.018 156.397 201.669C155.048 201.515 154.849 200.377 154.376 199.61C147.685 188.766 141.602 177.577 136.02 166.133C133.952 161.895 131.16 157.733 132.1 152.54C132.219 151.571 132.211 150.591 132.076 149.624C131.105 138.454 133.809 128.351 139.353 118.507C144.87 108.707 149.005 98.159 148.772 86.507C148.837 85.8387 148.758 85.1643 148.541 84.529C148.066 83.085 147.459 81.6881 146.727 80.356C143.372 75.335 138.294 73.112 133.344 78.894C130.5 82.2935 128.43 86.2717 127.278 90.552C124.286 101.033 124.523 111.786 124.808 122.515C124.98 128.958 125.514 135.393 125.924 142.508C124.168 138.77 122.655 134.923 121.396 130.99C118.624 123.358 116.273 115.58 114.355 107.69C113.491 104.122 111.641 100.504 112.687 96.758C117.697 79.2198 120.387 61.1004 120.687 42.863C120.835 30.202 120.147 17.598 115.715 5.53998C114.9 3.32198 114.193 0.619984 111.457 0.0799838C108.566 -0.490016 107.317 2.05799 105.838 3.92399C105.474 4.42127 105.155 4.95042 104.886 5.50498C99.661 15.324 97.576 26.066 95.647 36.856C94.7033 42.2113 94.5426 47.6754 95.17 53.077C96.256 62.802 99.137 72.04 102.322 81.237C104.71 88.13 108.613 94.417 110 101.729C111.162 107.589 112.624 113.386 114.381 119.096C117.439 129.354 121.061 139.436 125.229 149.296C128.405 156.796 131.696 164.242 135.442 171.482C136.382 173.3 137.213 175.176 138.093 177.025C134.09 173.495 130.503 169.52 127.403 165.176C115.903 149.339 107.773 131.646 99.434 114.076C95.89 106.607 92.379 99.128 86.193 93.369C83.678 91.025 80.723 88.518 77.262 89.895C73.992 91.195 73.64 94.87 73.537 98.182C73.5254 101.935 74.2553 105.653 75.685 109.123C81.524 124.588 91.798 136.974 103.642 148.123C112.942 156.875 123.577 164.151 131.995 173.901C136.088 178.643 140.795 182.901 144.195 188.188C147.783 193.769 150.975 199.603 154.395 205.296C156.589 208.951 158.876 212.55 161.295 216.46C157.922 216.375 155.122 215.808 153.14 213.111C151.811 211.303 150.511 209.461 149.04 207.769C140.329 197.737 131.912 187.465 123.789 176.954C118.563 170.204 112.023 165.342 103.71 163.112C99.564 161.999 95.889 163.455 94.079 166.949C92.6329 169.722 92.281 172.938 93.093 175.958C94.793 182.705 99.521 187.197 104.666 191.316C111.594 196.856 119.52 200.734 127.401 204.672Z" fill="#FBF5FF"/>
<path d="M367.217 183.913C361.217 159.276 387.207 135.295 438.465 89.198C492.947 40.198 520.189 15.705 544.06 23.269C573.685 32.657 589.031 81.108 583.787 118.063C573.861 188.028 487.198 237.455 422.918 223.323C418.022 222.246 374.064 212.038 367.217 183.913Z" fill="#F5E3FF"/>
<path d="M693.492 338.334C669.168 458.011 544.488 570.321 397.884 570.274C261.668 570.232 128.316 468.642 102.276 338.334C82.735 240.556 121.524 116.052 187.236 98.601C255.754 80.401 289.118 219.445 408.99 235.55C524.939 251.129 595.27 137.669 657.038 173.47C703.593 200.453 703.697 288.121 693.492 338.334Z" fill="#F5E3FF"/>
<path d="M368.829 554.127C370.521 554.791 372.155 555.597 373.712 556.535C375.76 557.635 377.812 558.735 379.848 559.856C383.209 561.699 386.567 563.545 389.922 565.396C390.024 565.425 390.131 565.435 390.237 565.424C393.343 567.132 396.449 568.84 399.555 570.548C400.18 570.825 400.71 571.28 401.077 571.858C401.444 572.435 401.632 573.107 401.618 573.791C401.601 574.218 401.489 574.635 401.29 575.013C401.019 576.547 400.273 577.957 399.158 579.045C398.209 580.586 396.715 581.031 394.799 580.345C386.362 575.785 377.924 571.224 369.487 566.661C367.933 565.821 366.387 564.968 364.825 564.131C364.439 563.924 364.036 563.751 363.964 563.245C363.913 562.569 364.413 562.137 364.686 561.61C365.803 559.453 366.968 557.321 368.101 555.173C368.254 554.77 368.504 554.411 368.829 554.127Z" fill="#A8BADE"/>
<path d="M399.157 579.048L401.289 575.016C401.537 575.726 402.389 575.957 402.56 576.808C402.673 577.128 402.692 577.473 402.616 577.804C402.539 578.134 402.369 578.436 402.127 578.673C401.849 578.952 401.497 579.146 401.112 579.231C400.727 579.316 400.326 579.289 399.956 579.153C399.838 579.079 399.706 579.031 399.568 579.013C399.43 578.994 399.29 579.006 399.157 579.048Z" fill="#206194"/>
<path d="M365.552 560.505C366.63 558.372 367.928 556.355 368.829 554.129C368.395 553.884 367.968 553.629 367.529 553.395C365.629 552.384 363.704 551.429 361.842 550.358C357.896 548.089 353.822 546.065 349.859 543.83C347.216 542.34 344.536 540.882 341.806 539.537C339.688 538.493 337.669 537.244 335.594 536.109C332.673 534.509 329.734 532.945 326.812 531.349C325.04 530.379 323.221 529.493 321.545 528.349C321.445 528.861 321.815 529.349 321.488 529.903C319.934 532.546 318.704 535.373 317.111 537.997C318.251 538.597 319.392 539.192 320.527 539.797C323.404 540.824 326.078 542.35 328.427 544.304C328.837 544.22 329.346 544.555 329.771 544.784C333.571 546.847 337.384 548.884 341.171 550.976C343.471 552.249 345.752 553.576 348.078 554.786C352.261 556.961 356.354 559.3 360.533 561.48C361.643 562.132 362.791 562.719 363.97 563.236C364.496 562.33 365.076 561.446 365.552 560.505Z" fill="#206194"/>
<path d="M321.546 528.353C322.12 528.987 322.004 529.514 321.576 530.253C320.223 532.582 319.15 535.068 317.757 537.379C317.587 537.661 317.491 537.964 317.113 538.005C312.314 535.351 307.884 532.08 303.935 528.276C301.991 526.484 299.973 524.776 297.971 523.046C297.322 522.487 296.992 521.615 296.139 521.251C295.875 521.139 295.951 520.812 296.027 520.566C296.134 520.212 296.413 520.302 296.649 520.366C300.231 521.292 303.818 522.196 307.39 523.166C309.628 523.773 311.862 524.412 314.058 525.156C316.381 525.893 318.625 526.857 320.758 528.035C321.013 528.158 321.277 528.264 321.546 528.353Z" fill="#A8BADE"/>
<path d="M333.044 542.116C332.818 542.209 332.571 542.243 332.328 542.215C332.085 542.186 331.853 542.096 331.654 541.953C329.164 540.597 326.613 539.353 324.219 537.819C323.594 537.419 323.275 536.882 323.619 536.193C324.019 535.393 324.45 534.545 325.597 534.768C325.949 534.838 326.29 534.96 326.607 535.129C328.801 536.305 330.996 537.483 333.171 538.694C333.871 539.085 334.543 539.604 334.384 540.542C334.356 540.912 334.212 541.265 333.971 541.547C333.73 541.83 333.405 542.029 333.044 542.116Z" fill="#A8BADE"/>
<path d="M548.529 353.181L700.394 460.647C701.278 461.273 701.881 462.221 702.073 463.287C702.264 464.353 702.03 465.452 701.419 466.347L631.455 567.166C631.149 567.602 630.76 567.974 630.31 568.259C629.86 568.544 629.358 568.737 628.833 568.828C628.308 568.918 627.77 568.903 627.25 568.785C626.731 568.666 626.24 568.446 625.806 568.137L473.941 460.672C473.058 460.047 472.456 459.099 472.264 458.035C472.072 456.97 472.306 455.872 472.916 454.978L542.885 354.154C543.191 353.718 543.58 353.348 544.029 353.063C544.479 352.778 544.98 352.585 545.505 352.495C546.029 352.404 546.566 352.418 547.085 352.536C547.604 352.654 548.095 352.873 548.529 353.181Z" fill="#A8BADE"/>
<path d="M549.257 364.764L664.287 446.164L599.5 539.529L484.47 458.129L549.257 364.764Z" fill="#206194"/>
<path d="M614.885 534.962L633.532 548.157C634.415 548.783 635.018 549.732 635.209 550.798C635.4 551.864 635.165 552.962 634.555 553.857L632.501 556.818C632.195 557.254 631.806 557.626 631.355 557.911C630.905 558.196 630.403 558.39 629.878 558.48C629.352 558.57 628.814 558.555 628.295 558.437C627.775 558.318 627.284 558.098 626.85 557.789L608.203 544.594C607.319 543.968 606.717 543.019 606.526 541.953C606.334 540.887 606.569 539.789 607.18 538.894L609.234 535.933C609.54 535.497 609.929 535.125 610.38 534.84C610.83 534.555 611.332 534.361 611.857 534.271C612.383 534.181 612.921 534.195 613.44 534.314C613.96 534.433 614.451 534.653 614.885 534.962Z" fill="#206194"/>
<path d="M624.144 521.615L642.791 534.815C643.673 535.441 644.275 536.388 644.467 537.453C644.658 538.517 644.425 539.615 643.816 540.509L641.76 543.47C641.454 543.906 641.065 544.278 640.615 544.563C640.165 544.848 639.663 545.042 639.138 545.132C638.613 545.223 638.075 545.208 637.556 545.09C637.036 544.972 636.545 544.752 636.111 544.443L617.464 531.243C616.581 530.617 615.979 529.67 615.787 528.605C615.596 527.541 615.83 526.443 616.439 525.549L618.495 522.588C618.801 522.152 619.19 521.78 619.64 521.495C620.09 521.21 620.592 521.016 621.117 520.926C621.642 520.836 622.18 520.85 622.699 520.968C623.219 521.086 623.71 521.306 624.144 521.615Z" fill="#206194"/>
<path d="M633.405 508.272L652.051 521.464C652.935 522.09 653.538 523.038 653.73 524.104C653.922 525.17 653.687 526.269 653.076 527.164L651.022 530.125C650.716 530.561 650.327 530.933 649.876 531.218C649.426 531.503 648.924 531.696 648.399 531.787C647.873 531.877 647.335 531.862 646.816 531.744C646.296 531.625 645.805 531.405 645.371 531.096L626.724 517.901C625.84 517.275 625.238 516.326 625.047 515.26C624.855 514.194 625.09 513.096 625.701 512.201L627.755 509.24C628.061 508.804 628.451 508.433 628.901 508.148C629.351 507.863 629.853 507.67 630.378 507.58C630.904 507.49 631.441 507.505 631.961 507.624C632.48 507.742 632.971 507.963 633.405 508.272Z" fill="#206194"/>
<path d="M653.056 479.952L671.703 493.147C672.585 493.773 673.187 494.72 673.378 495.785C673.57 496.849 673.336 497.947 672.728 498.841L670.672 501.802C670.366 502.238 669.977 502.61 669.527 502.895C669.077 503.18 668.575 503.373 668.05 503.464C667.525 503.554 666.987 503.54 666.468 503.422C665.948 503.304 665.457 503.084 665.023 502.775L646.376 489.575C645.493 488.95 644.891 488.003 644.699 486.938C644.507 485.873 644.741 484.775 645.351 483.881L647.407 480.92C647.713 480.484 648.102 480.113 648.553 479.828C649.003 479.543 649.505 479.35 650.03 479.26C650.555 479.17 651.093 479.185 651.612 479.304C652.132 479.422 652.622 479.643 653.056 479.952Z" fill="#206194"/>
<path d="M662.317 466.606L680.963 479.806C681.846 480.431 682.448 481.378 682.64 482.443C682.832 483.508 682.597 484.606 681.988 485.5L679.934 488.461C679.628 488.897 679.239 489.269 678.788 489.554C678.338 489.839 677.836 490.032 677.311 490.123C676.785 490.213 676.247 490.198 675.728 490.08C675.208 489.961 674.717 489.741 674.283 489.432L655.636 476.237C654.752 475.611 654.15 474.662 653.959 473.596C653.767 472.53 654.002 471.432 654.613 470.537L656.667 467.577C656.973 467.141 657.362 466.769 657.812 466.484C658.263 466.199 658.765 466.006 659.29 465.916C659.815 465.825 660.353 465.84 660.872 465.958C661.392 466.077 661.883 466.297 662.317 466.606Z" fill="#206194"/>
<path d="M671.577 453.263L690.224 466.458C691.107 467.084 691.71 468.033 691.901 469.099C692.092 470.165 691.857 471.263 691.247 472.158L689.193 475.118C688.887 475.554 688.498 475.926 688.047 476.211C687.597 476.497 687.095 476.69 686.57 476.78C686.045 476.871 685.507 476.857 684.987 476.738C684.467 476.62 683.976 476.4 683.542 476.091L664.896 462.891C664.013 462.266 663.411 461.318 663.219 460.254C663.027 459.189 663.261 458.091 663.871 457.197L665.925 454.236C666.231 453.799 666.62 453.427 667.07 453.142C667.52 452.856 668.023 452.663 668.548 452.572C669.074 452.482 669.612 452.496 670.132 452.615C670.651 452.733 671.143 452.954 671.577 453.263Z" fill="#206194"/>
<path d="M651.664 511.439C655.497 509.244 656.804 504.319 654.583 500.44C652.362 496.56 647.453 495.194 643.619 497.389C639.786 499.585 638.479 504.509 640.7 508.389C642.922 512.268 647.83 513.634 651.664 511.439Z" fill="#206194"/>
<path d="M251.762 245.741C185.131 277.09 118.526 308.424 51.949 339.741C52.477 339.957 53.315 340.347 54.175 340.655C100.114 357.197 146.057 373.738 192.004 390.277C198.972 392.785 198.975 392.75 201.538 385.63C217.943 340.073 234.338 294.516 250.725 248.96C251.169 247.727 252.015 246.532 251.762 245.741ZM181.279 361.475C165.217 355.711 149.154 349.932 133.089 344.139L112.889 336.867C145.43 321.551 178.149 306.15 210.719 290.825C202.493 313.682 194.071 336.986 185.748 360.325C184.685 363.297 182.989 362.09 181.279 361.475Z" fill="#065B88"/>
<path d="M109.003 354.273C108.132 355.568 108.168 358.02 106.163 357.094C104.098 356.139 105.754 354.242 106.209 352.872C106.619 351.641 106.8 349.314 108.821 350.221C111.049 351.223 108.742 352.999 109.003 354.273Z" fill="#3D9BD2"/>
<path d="M121.194 358.643C120.508 359.899 120.429 362.189 118.461 361.424C116.18 360.538 117.921 358.654 118.336 357.324C118.724 356.084 118.878 353.787 120.9 354.555C123.204 355.428 121.276 357.269 121.194 358.643Z" fill="#3A98CF"/>
<path d="M96.772 350.018C95.978 351.05 96.178 353.543 94.088 352.651C91.935 351.731 93.481 349.833 93.954 348.461C94.384 347.217 94.554 344.92 96.587 345.794C98.772 346.734 96.843 348.55 96.772 350.018Z" fill="#3A98CF"/>
<path d="M145.089 367.104C144.36 368.271 144.451 370.668 142.554 370.129C140.228 369.47 141.554 367.445 142.103 366.076C142.631 364.759 142.631 362.211 144.969 363.197C146.861 363.997 145.247 365.761 145.089 367.104Z" fill="#3997CE"/>
<path d="M193.266 384.722C192.444 385.769 192.648 388.28 190.558 387.38C188.416 386.458 189.966 384.556 190.436 383.18C190.863 381.933 191.024 379.634 193.075 380.525C195.271 381.476 193.325 383.278 193.266 384.722Z" fill="#3A99D0"/>
<path d="M166.299 374.87C167.193 373.508 167.109 371.114 169.165 371.91C171.465 372.802 169.777 374.689 169.365 376.063C168.976 377.382 168.647 379.563 166.681 378.809C164.278 377.889 166.648 376.063 166.299 374.87Z" fill="#3590C7"/>
<path d="M154.306 370.341C155.049 369.241 154.852 366.897 156.891 367.499C159.056 368.139 157.716 369.968 157.258 371.169C156.758 372.479 156.758 374.969 154.519 374.159C152.54 373.447 154.174 371.672 154.306 370.341Z" fill="#3D9BD3"/>
<path d="M132.904 362.562C132.128 363.605 132.389 365.935 130.698 365.423C128.492 364.758 130.227 362.96 130.586 361.788C130.932 360.665 130.962 358.446 132.642 358.946C134.921 359.627 132.745 361.346 132.904 362.562Z" fill="#47A9E3"/>
<path d="M84.774 345.058C83.886 346.247 84.137 348.58 82.448 348.058C80.248 347.385 81.987 345.586 82.342 344.406C82.682 343.28 82.71 341.063 84.405 341.566C86.764 342.267 84.311 343.987 84.774 345.058Z" fill="#44A9E3"/>
<path d="M181.216 379.705C180.379 380.746 180.809 383.258 178.853 382.784C176.935 382.319 178.283 380.517 178.704 379.456C179.187 378.24 179.074 375.877 180.969 376.329C182.906 376.796 181.263 378.505 181.216 379.705Z" fill="#45A9E3"/>
<path d="M307.885 233.598C308.832 230.488 311.859 229.688 314.109 228.198C324.401 221.36 334.843 214.753 345.232 208.062C346.108 207.5 346.907 206.662 348.104 207.234C345.004 213.59 339.959 218.181 334.477 222.296C326.546 228.249 317.896 232.596 307.885 233.598Z" fill="#FFD600"/>
<path d="M111.642 262.142C114.742 262.889 117.942 262.697 120.892 265.242C123.128 267.148 123.855 270.535 124.905 273.471C133.705 297.971 142.621 322.383 151.43 346.871C163.446 380.261 175.58 413.571 187.571 446.978C188.293 448.989 189.416 450.968 188.839 453.339V453.349C189.066 458.849 186.039 461.931 184.959 466.462C171.527 429.462 158.096 392.47 144.665 355.486C133.554 324.827 122.468 294.154 111.406 263.465C111.451 263.019 111.53 262.576 111.642 262.142Z" fill="#003160"/>
<path d="M144.523 265.673C165.068 323.485 185.608 381.298 206.143 439.112C206.483 440.067 206.768 441.059 207.075 442.027C204.45 443.648 201.839 445.327 198.669 443.502H198.662V443.492C196.817 442.382 196.351 439.824 195.577 437.652C181.316 397.613 167.099 357.546 152.927 317.452C147.673 302.598 142.476 287.717 137.165 272.891C136.492 271.032 135.509 269.171 136.131 267.013C137.316 263.785 141.834 263.069 144.523 265.673Z" fill="#003160"/>
<path d="M267.889 157.069C267.522 160.152 267.802 163.369 266.194 166.219C264.994 168.378 262.7 168.95 260.734 169.869C244.334 177.569 227.994 185.395 211.6 193.108C189.247 203.628 166.951 214.27 144.588 224.765C143.241 225.398 141.936 226.434 140.281 225.744H140.275C136.508 225.716 134.256 222.528 131.096 221.234C155.859 209.458 180.618 197.683 205.373 185.909C225.895 176.169 246.428 166.456 266.973 156.77C267.287 156.84 267.594 156.94 267.889 157.069Z" fill="#003160"/>
<path d="M266.996 189.945C228.281 207.898 189.565 225.848 150.848 243.793C150.21 244.093 149.541 244.33 148.891 244.593C147.657 241.879 146.385 239.179 147.491 236.078V236.071H147.498C148.174 234.271 149.909 233.92 151.363 233.243C178.174 220.776 205.006 208.355 231.857 195.98C241.806 191.391 251.777 186.861 261.701 182.215C262.947 181.626 264.177 180.723 265.687 181.45C267.957 182.79 268.66 187.367 266.996 189.945Z" fill="#003160"/>
<path d="M307.885 233.594C273.204 249.723 282.377 262.91 266.269 229.942C232.669 146.68 265.123 151.065 296.65 127.817C331.599 128.843 361.026 164.162 375.482 185.46C360.722 203.931 328.796 217.022 307.885 233.594Z" fill="#007FF1"/>
<path d="M253.778 143.024C251.688 139.739 249.452 136.538 247.536 133.152C244.875 128.478 244.051 122.98 245.227 117.732C246.402 112.484 249.492 107.862 253.892 104.77C258.312 101.662 263.758 100.371 269.103 101.165C274.448 101.958 279.284 104.776 282.61 109.035C284.288 111.149 285.574 113.579 287.146 115.787C288.078 117.097 288.505 118.875 290.246 119.497C290.434 121.244 288.883 121.565 287.905 122.197C277.582 128.91 267.229 135.577 256.948 142.358C256.013 142.978 255.054 143.877 253.778 143.024Z" fill="#007FF1"/>
<path d="M253.778 143.024C263.1 137.06 272.422 131.093 281.743 125.124C284.604 123.286 287.418 121.374 290.254 119.496C291.561 118.362 292.505 118.358 293.454 120.096C294.844 122.65 296.496 125.059 298.037 127.53C289.804 133.754 280.882 138.914 272.274 144.557C267.284 147.828 262.474 151.419 257.091 154.046C255.86 151.803 254.488 149.64 252.983 147.57C251.286 145.488 251.638 144.199 253.778 143.024Z" fill="#003160"/>
<path d="M121.126 280.079C138.834 280.079 153.189 265.551 153.189 247.63C153.189 229.709 138.834 215.181 121.126 215.181C103.418 215.181 89.063 229.709 89.063 247.63C89.063 265.551 103.418 280.079 121.126 280.079Z" fill="#003160"/>
<path d="M199.851 492.17C193.5 493.098 187.04 491.466 181.892 487.633C176.744 483.8 173.328 478.08 172.395 471.73L170.18 457.017C169.21 450.659 170.787 444.175 174.569 438.972C178.351 433.77 184.033 430.269 190.38 429.23C196.731 428.304 203.189 429.937 208.337 433.769C213.484 437.602 216.9 443.321 217.833 449.671L220.047 464.383C221.017 470.741 219.44 477.224 215.659 482.427C211.878 487.629 206.198 491.13 199.851 492.17Z" fill="#007FF1"/>
<path d="M264.709 472.154C272.409 472.254 279.841 470.254 287.39 469.191C290.014 468.823 291.29 469.134 291.401 472.091C291.54 475.977 294.362 480.816 292.277 483.355C290.459 485.57 285.277 485.005 281.577 485.578C227.516 493.929 173.457 502.295 119.402 510.678C116.211 511.178 115.002 510.538 114.843 507.244C114.665 504.392 114.242 501.56 113.581 498.78C113.081 496.524 113.896 495.907 115.968 495.631C122.031 494.824 128.068 493.801 134.112 492.892C138.735 492.192 143.412 491.727 147.653 489.5C149.048 489.514 150.442 489.44 151.827 489.278C186.89 483.806 221.961 478.386 257.04 473.018C259.585 472.628 262.146 472.382 264.709 472.154Z" fill="#003160"/>
<path d="M181.677 477.713C196.454 474.469 211.421 472.155 226.488 470.784C238.11 470.093 249.725 469.908 261.307 471.421C262.453 471.57 263.574 471.906 264.707 472.153C262.928 473.065 261.003 473.656 259.019 473.898C223.202 479.389 187.388 484.899 151.577 490.427C150.177 490.643 148.586 491.427 147.649 489.504C155.669 484.968 164.481 482.582 173.181 479.912C175.977 479.054 178.844 478.439 181.677 477.713Z" fill="#003160"/>
<path d="M414.913 335.59L439.353 153.79C439.439 153.133 439.654 152.5 439.985 151.926C440.317 151.353 440.759 150.851 441.285 150.449C441.812 150.047 442.412 149.753 443.053 149.584C443.693 149.415 444.361 149.374 445.017 149.464L478.637 154.257C479.966 154.459 481.162 155.174 481.968 156.249C482.775 157.324 483.127 158.673 482.948 160.005L458.508 341.805C458.422 342.462 458.207 343.095 457.876 343.669C457.544 344.242 457.102 344.744 456.576 345.146C456.049 345.548 455.449 345.842 454.808 346.011C454.168 346.18 453.5 346.221 452.844 346.131L419.223 341.338C417.895 341.136 416.698 340.421 415.892 339.346C415.086 338.271 414.734 336.922 414.913 335.59Z" fill="#FDFDFC"/>
<path d="M475.007 183.802C474.682 184.25 474.248 184.078 473.878 184.029C469.998 183.501 466.118 182.961 462.239 182.41C457.083 181.673 451.939 180.835 446.772 180.196C445.237 180.005 443.711 179.744 442.164 179.638C441.959 179.655 441.753 179.623 441.562 179.545C441.372 179.467 441.203 179.345 441.069 179.189C440.935 179.032 440.84 178.847 440.792 178.647C440.744 178.447 440.744 178.238 440.792 178.038C441.211 174.996 441.771 171.972 442.092 168.922C442.505 165.022 443.123 161.145 443.585 157.25C443.87 154.85 443.785 154.798 446.194 155.129C452.923 156.054 459.65 157.013 466.376 157.957C470.004 158.466 473.629 158.992 477.26 159.464C477.997 159.564 478.26 159.795 478.153 160.564C477.574 164.85 477.119 169.152 476.423 173.423C476.051 175.696 475.88 178.004 475.583 180.291C475.432 181.479 475.199 182.648 475.007 183.802Z" fill="#FFEF4D"/>
<path d="M471.403 210.847C471.075 211.163 470.727 211.071 470.375 211.02C461.666 209.752 452.968 208.391 444.238 207.297C443.42 207.28 442.631 206.991 441.997 206.474C441.362 205.957 440.919 205.243 440.738 204.445C440.058 202.418 439.196 200.452 438.384 198.47C437.902 197.293 438.39 196.17 438.53 195.048C439.03 191.025 439.703 187.022 440.13 182.993C440.261 181.759 440.785 181.722 441.662 181.849C444.983 182.328 448.3 182.822 451.623 183.289C456.07 183.916 460.523 184.518 464.97 185.143C467.81 185.543 470.649 185.954 473.487 186.377C474.302 186.498 474.674 186.842 474.528 187.828C473.728 193.203 473.006 198.59 472.278 203.976C472.033 205.789 471.851 207.61 471.631 209.425C471.57 209.911 471.476 210.387 471.403 210.847Z" fill="#FFEE2B"/>
<path d="M466.664 238.033C463.825 237.359 460.916 237.16 458.043 236.717C456.776 236.517 455.507 236.343 454.235 236.193C454.015 236.175 453.805 236.09 453.636 235.948C453.466 235.806 453.345 235.616 453.289 235.402C449.922 227.047 446.544 218.695 443.155 210.348C443.096 210.223 443.065 210.087 443.062 209.95C443.059 209.812 443.086 209.675 443.14 209.548C452.05 210.815 460.963 212.076 469.878 213.331C470.636 213.437 471.061 213.722 470.952 214.517C469.897 222.24 468.837 229.961 467.77 237.68C467.725 237.78 467.66 237.869 467.578 237.942C467.496 238.015 467.4 238.07 467.296 238.104C467.191 238.137 467.081 238.148 466.972 238.136C466.863 238.124 466.758 238.089 466.664 238.033Z" fill="#FFD600"/>
<path d="M442.208 332.599L375.759 161.369C375.272 160.119 375.297 158.727 375.83 157.495C376.362 156.264 377.358 155.291 378.602 154.789L410.179 142.412C411.43 141.933 412.82 141.971 414.043 142.516C415.267 143.062 416.224 144.071 416.704 145.321L483.153 316.549C483.64 317.799 483.615 319.191 483.082 320.423C482.55 321.654 481.554 322.627 480.31 323.129L448.732 335.506C447.481 335.985 446.092 335.947 444.868 335.402C443.645 334.857 442.688 333.849 442.208 332.599Z" fill="#FDFDFC"/>
<path d="M398.541 208.029L398.241 207.271C396.014 201.481 393.822 195.678 391.53 189.914C391.045 188.698 391.254 188.252 392.452 187.79C402.278 183.995 412.086 180.15 421.876 176.257C422.998 175.811 423.402 176.068 423.812 177.146C426.393 183.908 429.038 190.646 431.653 197.394C432.214 198.844 432.071 199.18 430.636 199.694C420.889 203.194 411.336 207.204 401.67 210.912C399.96 211.568 399.97 211.576 399.307 209.896C399.064 209.271 398.799 208.652 398.541 208.029Z" fill="#FF444B"/>
<path d="M451.84 249.69C441.44 253.775 431.04 257.868 420.64 261.969C419.749 262.321 419.52 261.997 419.24 261.253C417.562 256.853 415.862 252.461 414.14 248.078C412.996 245.153 411.825 242.238 410.667 239.318C410.833 238.79 411.35 238.8 411.737 238.648C421.692 234.733 431.649 230.827 441.608 226.93C443.001 226.385 443.07 226.418 443.632 227.865C446.299 234.727 448.958 241.591 451.61 248.457C451.752 248.838 452.157 249.208 451.84 249.69Z" fill="#FF000E"/>
<path d="M397.279 156.684C402.156 154.772 407.046 152.884 411.904 150.927C413.026 150.475 413.554 150.67 414.004 151.84C416.592 158.64 419.221 165.423 421.892 172.189C422.271 173.151 422.144 173.603 421.139 173.994C411.206 177.849 401.284 181.736 391.374 185.657C390.413 186.037 389.979 185.888 389.594 184.88C386.969 178 384.304 171.133 381.601 164.28C381.201 163.27 381.431 162.864 382.393 162.497C387.365 160.594 392.317 158.629 397.279 156.684Z" fill="#FF6078"/>
<path d="M409.802 236.871C409.795 236.832 409.78 236.796 409.758 236.763C409.737 236.73 409.708 236.703 409.675 236.682C409.353 236.37 409.117 235.98 408.99 235.55C407.68 232.177 406.371 228.803 405.062 225.428C404.868 225.023 404.775 224.577 404.789 224.128C403.652 221.189 402.515 218.25 401.376 215.31C400.538 214.2 400.648 213.544 401.798 213.189C403.754 212.583 405.624 211.757 407.528 211.016C415.603 207.867 423.673 204.706 431.738 201.534C433.16 200.978 433.198 200.995 433.765 202.456C436.419 209.285 439.053 216.122 441.736 222.941C442.122 223.926 442.084 224.451 440.984 224.877C430.915 228.777 420.866 232.739 410.807 236.677C410.493 236.799 410.186 237.057 409.802 236.871Z" fill="#F83036"/>
<path d="M421.997 316.95L562.64 199.186C563.146 198.759 563.732 198.436 564.364 198.237C564.995 198.037 565.66 197.964 566.32 198.022C566.98 198.08 567.622 198.268 568.208 198.575C568.795 198.882 569.316 199.302 569.74 199.811L591.331 226.022C592.175 227.068 592.575 228.403 592.444 229.741C592.313 231.079 591.662 232.312 590.631 233.174L449.996 350.939C449.489 351.366 448.904 351.688 448.272 351.888C447.64 352.088 446.975 352.16 446.316 352.102C445.656 352.044 445.014 351.856 444.427 351.548C443.84 351.241 443.32 350.821 442.896 350.312L421.303 324.1C420.458 323.055 420.057 321.72 420.187 320.383C420.317 319.045 420.967 317.813 421.997 316.95Z" fill="#FCFDFD"/>
<path d="M568.729 245.391C568.186 245.501 567.983 245.084 567.743 244.791C565.232 241.785 562.732 238.771 560.243 235.748C556.931 231.728 553.702 227.642 550.314 223.683C549.309 222.508 548.358 221.283 547.289 220.164C547.127 220.038 546.997 219.876 546.91 219.691C546.823 219.506 546.781 219.302 546.787 219.098C546.793 218.893 546.848 218.693 546.946 218.513C547.044 218.333 547.184 218.18 547.353 218.064C549.713 216.101 552.164 214.245 554.461 212.21C557.398 209.61 560.467 207.163 563.434 204.599C565.266 203.016 565.234 202.924 566.791 204.793C571.136 210.014 575.47 215.248 579.791 220.493C582.127 223.314 584.448 226.148 586.811 228.945C587.291 229.512 587.324 229.862 586.729 230.359C583.411 233.134 580.174 236.004 576.78 238.688C574.972 240.116 573.289 241.704 571.527 243.193C570.609 243.962 569.645 244.672 568.729 245.391Z" fill="#4DDDFF"/>
<path d="M547.83 262.93C547.375 262.943 547.181 262.641 546.954 262.366C541.378 255.556 535.873 248.686 530.166 241.991C529.573 241.427 529.185 240.681 529.066 239.872C528.946 239.062 529.1 238.236 529.505 237.525C530.369 235.569 531.059 233.536 531.796 231.525C532.233 230.332 533.349 229.832 534.211 229.096C537.296 226.466 540.488 223.961 543.523 221.275C544.451 220.453 544.863 220.775 545.423 221.463C547.552 224.056 549.669 226.657 551.806 229.243C554.667 232.705 557.549 236.151 560.412 239.612C562.241 241.823 564.059 244.041 565.867 246.267C566.388 246.905 566.431 247.411 565.658 248.041C561.444 251.472 557.277 254.963 553.108 258.448C551.708 259.622 550.342 260.848 548.955 262.037C548.586 262.356 548.191 262.645 547.83 262.93Z" fill="#2BD6FF"/>
<path d="M525.999 279.809C524.357 277.395 522.343 275.289 520.52 273.023C519.72 272.023 518.9 271.037 518.062 270.069C517.911 269.908 517.814 269.703 517.784 269.484C517.754 269.266 517.793 269.043 517.895 268.847C521.044 260.405 524.183 251.96 527.31 243.512C527.351 243.38 527.42 243.258 527.511 243.155C527.603 243.052 527.715 242.969 527.841 242.912C533.568 249.856 539.299 256.798 545.034 263.737C545.522 264.326 545.644 264.824 545.027 265.337C539.042 270.327 533.053 275.313 527.059 280.295C526.958 280.339 526.849 280.362 526.739 280.361C526.629 280.361 526.52 280.336 526.42 280.29C526.319 280.244 526.23 280.178 526.158 280.095C526.085 280.012 526.031 279.914 525.999 279.809Z" fill="#00D2FF"/>
<path d="M444.168 333.149L510.568 161.901C511.051 160.649 512.009 159.638 513.232 159.088C514.456 158.537 515.848 158.491 517.105 158.959L548.769 171.114C550.016 171.605 551.016 172.57 551.552 173.798C552.088 175.025 552.114 176.416 551.626 177.663L485.226 348.91C484.743 350.162 483.785 351.173 482.562 351.723C481.338 352.274 479.947 352.32 478.689 351.852L447.025 339.697C445.779 339.206 444.778 338.241 444.242 337.014C443.707 335.786 443.68 334.396 444.168 333.149Z" fill="#FCFDFD"/>
<path d="M495.928 211.716L496.22 210.957C498.479 205.181 500.774 199.417 502.967 193.615C503.431 192.39 503.886 192.202 505.082 192.668C514.896 196.491 524.729 200.267 534.582 203.994C535.713 204.422 535.837 204.885 535.413 205.957C532.758 212.689 530.168 219.449 527.548 226.194C526.986 227.644 526.648 227.794 525.248 227.208C515.689 223.222 505.933 219.739 496.294 215.959C494.594 215.291 494.589 215.301 495.235 213.615C495.478 212.986 495.699 212.349 495.928 211.716Z" fill="#7C44FF"/>
<path d="M507.193 278.421C496.755 274.421 486.315 270.43 475.873 266.448C474.973 266.109 475.027 265.716 475.32 264.974C477.047 260.593 478.753 256.203 480.437 251.805C481.566 248.874 482.667 245.932 483.78 242.995C484.259 242.716 484.635 243.074 485.023 243.222C495.012 247.044 504.998 250.874 514.981 254.713C516.381 255.25 516.406 255.32 515.845 256.769C513.185 263.636 510.52 270.498 507.851 277.355C507.701 277.733 507.752 278.277 507.193 278.421Z" fill="#4C00FF"/>
<path d="M529.62 172.951C534.511 174.828 539.393 176.733 544.302 178.563C545.436 178.985 545.694 179.485 545.233 180.65C542.56 187.415 539.926 194.197 537.333 200.996C536.963 201.963 536.565 202.21 535.559 201.821C525.626 197.969 515.678 194.149 505.715 190.361C504.75 189.993 504.531 189.59 504.926 188.586C507.626 181.734 510.288 174.867 512.913 167.986C513.301 166.973 513.742 166.828 514.7 167.204C519.662 169.153 524.645 171.041 529.62 172.951Z" fill="#8C60FF"/>
<path d="M484.794 240.609C484.815 240.576 484.829 240.538 484.835 240.499C484.841 240.46 484.838 240.42 484.827 240.382C484.801 239.933 484.89 239.486 485.087 239.082L489.012 228.959C489.142 228.53 489.373 228.139 489.686 227.818C490.829 224.879 491.97 221.942 493.111 219.005C493.241 217.621 493.764 217.205 494.853 217.722C496.706 218.595 498.645 219.245 500.553 219.981C508.638 223.102 516.729 226.211 524.824 229.308C526.249 229.855 526.265 229.894 525.7 231.356C523.054 238.188 520.389 245.013 517.771 251.856C517.392 252.845 517.01 253.206 515.911 252.779C505.842 248.872 495.753 245.017 485.673 241.14C485.352 241.02 484.952 241.005 484.794 240.609Z" fill="#6D30F8"/>
<path d="M379.424 480.981C377.543 480.847 375.66 480.596 373.779 480.595C335.851 480.573 297.923 480.431 259.996 480.71C252.579 480.764 247.301 476.969 247.963 468.463C248.372 461.691 248.381 454.902 247.991 448.129C247.843 444.489 249.223 443.585 252.524 443.729C257.624 443.948 262.734 443.795 267.838 443.795C369.951 443.795 472.065 443.795 574.179 443.795C580.919 443.795 580.911 443.795 580.899 450.411C580.887 456.899 580.939 463.386 580.88 469.874C580.811 477.224 577.509 480.564 570.203 480.568C531.254 480.589 492.306 480.593 453.357 480.581C451.474 480.581 449.593 480.841 447.711 480.981C445.934 482.243 443.894 482.209 441.857 482.21C422.996 482.227 404.135 482.227 385.274 482.21C383.247 482.197 381.193 482.276 379.424 480.981Z" fill="#FDFDFC"/>
<path d="M369.183 513.071C372.504 505.612 374.583 497.721 377.04 489.961C377.525 488.43 377.805 486.834 378.867 485.561C380.666 484.302 382.83 483.672 385.024 483.769C404.384 483.778 423.744 483.785 443.104 483.791C445.17 483.791 447.204 483.869 448.765 485.53C449.115 485.623 449.437 485.8 449.703 486.046C449.969 486.292 450.17 486.599 450.29 486.941C452.669 494.991 454.922 503.082 458.152 510.85C458.329 511.559 458.404 512.289 458.374 513.019C457.134 514.894 455.195 514.902 453.298 514.908C426.965 514.989 400.628 514.989 374.289 514.908C372.395 514.901 370.454 514.909 369.183 513.071Z" fill="#D0D0D0"/>
<path d="M369.183 513.075L458.374 513.02L469.655 513.147L469.637 513.134C470.683 517.341 468.913 518.343 464.886 518.325C431.227 518.179 397.567 518.239 363.907 518.235C363.033 518.235 362.159 518.235 361.284 518.204C360.621 518.2 359.987 517.932 359.521 517.46C359.056 516.988 358.796 516.35 358.801 515.687C358.805 515.024 359.073 514.39 359.545 513.924C360.017 513.459 360.655 513.2 361.318 513.204C363.939 513.123 366.56 513.11 369.183 513.075Z" fill="#F6F9F9"/>
<path d="M448.766 485.527L378.866 485.558C379.517 484.125 379.788 482.548 379.654 480.98C382.954 480.2 386.297 480.62 389.616 480.611C407.307 480.563 424.997 480.563 442.686 480.611C444.413 480.611 446.139 480.845 447.865 480.97C448.167 482.49 448.467 484.009 448.766 485.527Z" fill="#9B9B9E"/>
<path d="M414.216 466.754C417.365 466.872 418.846 468.449 418.93 471.443C418.999 472.057 418.938 472.678 418.751 473.266C418.564 473.854 418.254 474.397 417.843 474.857C417.432 475.318 416.928 475.687 416.365 475.94C415.802 476.192 415.191 476.323 414.574 476.324C411.707 476.524 409.96 474.298 409.887 471.635C409.814 468.972 411.31 466.918 414.216 466.754Z" fill="#353537"/>
<path d="M574.939 253.703H254.254C252.673 253.708 251.158 254.338 250.04 255.456C248.922 256.574 248.292 258.089 248.287 259.67V457.001C248.292 458.582 248.922 460.097 250.04 461.215C251.158 462.333 252.673 462.963 254.254 462.968H574.939C576.52 462.963 578.035 462.333 579.153 461.215C580.271 460.097 580.901 458.582 580.906 457.001V259.67C580.901 258.089 580.271 256.574 579.153 255.456C578.035 254.338 576.52 253.708 574.939 253.703ZM349.294 268.803H286.148H349.294Z" fill="#004476"/>
<path d="M565.884 274.036V438.414C565.881 439.799 565.33 441.127 564.352 442.107C563.374 443.088 562.048 443.643 560.663 443.65H265.487C264.1 443.646 262.77 443.093 261.789 442.112C260.808 441.131 260.255 439.801 260.251 438.414V274.036C260.255 272.649 260.808 271.319 261.789 270.338C262.77 269.357 264.1 268.804 265.487 268.8H560.663C562.048 268.807 563.374 269.362 564.352 270.343C565.33 271.323 565.881 272.651 565.884 274.036Z" fill="#18395B"/>
<path d="M471.068 443.784H407.504L407.414 443.65L286.153 268.8H349.3L470.984 443.65L471.068 443.784Z" fill="url(#paint0_linear_7_1295)"/>
<path d="M521.847 443.65H495.831L372.731 268.8H398.075L521.847 443.65Z" fill="url(#paint1_linear_7_1295)"/>
<path d="M580.907 450.408L560.664 443.65L431.73 268.8H448.602L565.885 429.791L580.907 450.408Z" fill="url(#paint2_linear_7_1295)"/>
<path d="M128.102 436.206C128.116 436.101 128.122 435.996 128.12 435.89C128.034 435.292 127.729 434.748 127.265 434.362C124.705 432.072 122.08 429.862 119.415 427.694C119.172 427.47 118.878 427.308 118.559 427.223C118.24 427.138 117.904 427.132 117.582 427.205C117.014 427.855 116.429 428.494 115.882 429.158C103.529 444.07 91.1783 458.984 78.831 473.901C77.262 475.796 75.731 477.721 74.177 479.632C74.189 479.832 74.12 480.078 74.243 480.215C77.209 483.531 80.322 486.667 84.423 488.56C84.5464 488.535 84.6681 488.502 84.787 488.46C87.9765 491.501 91.3596 494.332 94.915 496.936C95.185 496.636 95.467 496.357 95.722 496.05C109.511 479.406 123.297 462.761 137.08 446.115C137.462 445.656 137.795 445.153 138.151 444.671L128.102 436.206Z" fill="#FFD600"/>
<path d="M164.626 378.378L177.433 389.243C177.474 389.676 177.417 390.113 177.266 390.521C177.115 390.929 176.875 391.298 176.563 391.601C173.596 395.201 170.678 398.842 167.612 402.355C166.625 403.62 165.214 404.486 163.64 404.795C162.065 405.104 160.432 404.834 159.04 404.036C158.248 403.048 157.236 402.257 156.086 401.727C155.095 401.279 154.218 400.612 153.522 399.776C152.827 398.939 152.33 397.956 152.071 396.899C151.811 395.843 151.796 394.741 152.025 393.678C152.254 392.614 152.722 391.617 153.393 390.761C156.293 386.79 159.593 383.122 162.749 379.353C162.973 379.065 163.257 378.829 163.581 378.66C163.905 378.492 164.261 378.396 164.626 378.378Z" fill="#FFF7BD"/>
<path d="M140.415 438.92C139.899 439.544 140.439 440.382 139.906 441.177L120.491 424.708C121.991 424.396 123.427 424.153 124.837 423.792C129.755 422.534 134.565 421.038 138.39 417.382C138.908 416.888 139.412 416.02 140.402 416.554C142.437 416.594 143.454 418.188 144.694 419.436C145.052 419.746 145.284 420.177 145.346 420.646C145.409 421.116 145.297 421.592 145.033 421.985C141.892 427.188 141.374 433.113 140.415 438.92Z" fill="#CBCBCB"/>
<path d="M177.433 389.243C174.033 393.343 170.659 397.472 167.226 401.543C165.005 404.18 162.587 404.723 159.457 403.426C158.326 402.406 157.103 401.492 155.805 400.695C153.479 399.375 152.125 396.014 152.881 393.869C153.417 392.297 154.245 390.841 155.32 389.576C158.477 385.891 161.532 382.116 164.626 378.376C163.985 377.799 163.373 377.176 162.694 376.651C162.444 376.403 162.142 376.214 161.809 376.097C161.477 375.98 161.122 375.94 160.772 375.977C160.422 376.015 160.085 376.13 159.785 376.315C159.485 376.5 159.229 376.749 159.038 377.045C153.613 383.616 148.195 390.195 142.784 396.781C142.841 397.208 142.992 397.617 143.226 397.979C143.46 398.341 143.77 398.647 144.136 398.875C146.178 400.647 148.239 402.396 150.319 404.122C150.98 404.864 151.844 405.397 152.803 405.656C152.908 405.657 153.012 405.652 153.116 405.64C153.15 405.971 153.256 406.292 153.426 406.578C153.595 406.865 153.825 407.112 154.099 407.302C156.499 409.411 158.937 411.469 161.399 413.502C161.655 413.763 161.969 413.961 162.315 414.08C162.661 414.199 163.03 414.236 163.393 414.187C169.016 407.408 174.638 400.629 180.259 393.85C180.87 391.34 179.013 390.38 177.433 389.243Z" fill="#FFD600"/>
<path d="M153.118 405.435C156.543 408.353 159.968 411.271 163.393 414.189C163.253 414.414 163.129 414.654 162.969 414.865C161.319 417.036 161.322 417.03 159.184 415.225C153.955 410.814 148.725 406.405 143.494 402C143.315 401.811 143.148 401.611 142.955 401.436C140.482 399.185 140.482 399.186 142.783 396.785L153.118 405.435Z" fill="#004476"/>
<path d="M145.364 419.283L144.557 420.071L140.407 416.554C142.336 412.564 145.657 414.48 148.718 414.574C147.991 416.511 146.256 417.603 145.364 419.283Z" fill="#FFD600"/>
<path d="M137.722 444.58L118.196 427.713C117.837 427.399 117.615 426.956 117.578 426.481C117.54 426.005 117.69 425.534 117.996 425.167L118.112 425.03C118.263 424.851 118.449 424.703 118.657 424.596C118.866 424.489 119.094 424.424 119.328 424.405C119.562 424.387 119.797 424.415 120.02 424.488C120.243 424.56 120.449 424.677 120.627 424.83L140.153 441.699C140.512 442.013 140.734 442.455 140.772 442.931C140.809 443.406 140.659 443.878 140.353 444.244L140.237 444.381C140.086 444.56 139.9 444.708 139.692 444.815C139.483 444.922 139.255 444.987 139.021 445.005C138.787 445.024 138.552 444.996 138.329 444.923C138.106 444.85 137.9 444.733 137.722 444.58Z" fill="#004476"/>
<path d="M92.956 497.657L73.431 480.786C73.0718 480.472 72.8498 480.03 72.8124 479.554C72.775 479.079 72.9253 478.607 73.231 478.241L73.347 478.104C73.4983 477.925 73.6836 477.777 73.8923 477.67C74.101 477.562 74.3289 477.498 74.5628 477.479C74.7967 477.46 75.032 477.488 75.255 477.561C75.478 477.634 75.6843 477.751 75.862 477.904L95.388 494.771C95.7477 495.085 95.9702 495.527 96.0075 496.003C96.0449 496.479 95.8943 496.951 95.588 497.317L95.473 497.454C95.3217 497.634 95.1364 497.781 94.9276 497.889C94.7189 497.996 94.4909 498.061 94.2568 498.08C94.0228 498.099 93.7873 498.072 93.5641 497.999C93.3408 497.926 93.1341 497.81 92.956 497.657Z" fill="#004476"/>
<path d="M399.029 394.212C399.029 383.998 394.222 376.123 387.123 369.425C385.117 367.533 384.077 365.951 385.592 362.987C393.971 346.598 402.131 330.096 410.399 313.65C410.63 313.189 411.228 312.919 412.346 311.981V326.481C412.346 333.741 412.297 341.003 412.37 348.264C412.395 350.748 412.137 352.623 409.809 354.4C405.972 357.328 406.062 361.884 409.351 365.414C411.945 368.199 417.216 368.497 419.881 366.014C423.217 362.901 423.581 357.144 419.881 354.414C417.281 352.505 417.117 350.45 417.118 347.859C417.125 336.968 417.123 326.076 417.11 315.183C417.084 314.675 417.164 314.166 417.345 313.691C417.527 313.215 417.805 312.782 418.163 312.42C420.677 317.237 423.237 322.03 425.694 326.877C431.725 338.768 437.645 350.718 443.761 362.563C445.148 365.251 445.132 366.963 442.705 369.137C435.305 375.765 430.535 383.892 430.229 394.212C429.185 396.329 427.22 396.412 425.279 396.441C418.181 396.559 411.084 396.559 403.987 396.441C402.043 396.402 400.079 396.325 399.029 394.212Z" fill="#EAF8F9"/>
<path d="M399.029 394.208L430.229 394.202C432.975 394.29 435.316 394.984 435.471 398.345C435.602 401.196 435.361 403.878 431.645 404.279C429.31 404.531 429.494 406.421 429.473 408.062C429.427 411.833 429.416 415.605 429.44 419.377C429.461 423.015 428.132 424.865 424.12 424.712C417.72 424.467 411.298 424.578 404.893 424.775C401.002 424.894 399.442 422.965 399.399 419.366C399.353 415.446 399.399 411.522 399.457 407.6C399.479 406.013 399.494 404.664 397.434 404.229C394.103 403.529 393.387 400.958 393.818 397.999C394.249 395.04 396.39 394.208 399.029 394.208Z" fill="#FFD600"/>
<path d="M467.101 337.68C466.764 325.732 462.384 314.252 454.677 305.117C446.969 295.981 436.391 289.73 424.671 287.386V280.81H406.416V286.249C406.297 286.531 406.191 286.843 406.089 287.169C394.018 289.292 383.062 295.548 375.099 304.865C367.136 314.182 362.663 325.98 362.447 338.234H357.629V356.714H375.886V338.234H370.586C370.807 328.106 374.47 318.355 380.972 310.586C387.473 302.817 396.426 297.493 406.356 295.49C406.372 295.551 406.396 295.6 406.411 295.666V299.29H409.163C409.752 299.394 410.351 299.434 410.949 299.411C413.489 299.354 416.031 299.356 418.573 299.368C418.992 299.373 419.41 299.347 419.825 299.29H424.67V295.807C434.183 298.066 442.692 303.387 448.886 310.952C455.081 318.517 458.62 327.908 458.958 337.68H453.316V356.16H461.495C462.702 356.302 463.922 356.302 465.129 356.16H471.576V337.68H467.101Z" fill="#EAF8F9"/>
<path d="M198.746 526.742C205.698 531.035 212.758 535.166 219.57 539.674C225.192 543.396 225.677 546.656 222.187 552.474C214.944 564.551 214.877 564.595 203.187 557.342C197.369 553.733 191.635 549.992 185.863 546.31C188.873 538.945 192.293 531.844 198.746 526.742Z" fill="#258FDE"/>
<path d="M184.242 545.493C178.467 541.905 172.726 538.265 166.902 534.76C164.676 533.42 163.013 531.991 163.574 529.073C164.13 525.952 165.3 522.972 167.016 520.306C168.732 517.641 170.959 515.341 173.569 513.542C175.944 511.847 177.701 513.451 179.518 514.574C185.303 518.145 191.057 521.767 196.818 525.374C194.619 533.137 190.257 540.115 184.242 545.493Z" fill="#F12D00"/>
<path d="M184.241 545.492C188.434 538.783 192.627 532.076 196.82 525.37C197.463 525.827 198.105 526.284 198.746 526.742C194.62 533.377 190.914 540.29 185.857 546.313C185.32 546.038 184.781 545.765 184.241 545.492Z" fill="#A5C8DF"/>
<path d="M620.307 181.865C611.09 179.523 601.871 177.181 592.651 174.839C583.951 172.622 575.251 170.385 566.541 168.186C564.435 167.653 564.512 166.681 565.485 165.004C570.059 157.12 574.524 149.173 579.024 141.248C584.553 131.51 590.045 121.748 595.615 112.039C599.273 105.659 603.131 99.393 606.709 92.97C607.853 90.917 608.414 91.27 609.798 92.707C622.143 105.499 634.533 118.246 646.968 130.948C647.37 131.297 647.686 131.734 647.893 132.225C648.099 132.715 648.191 133.247 648.16 133.778C648.866 135.178 648.19 136.387 647.568 137.558C640.046 151.7 631.831 165.45 623.797 179.299C623.073 180.55 622.442 182.344 620.307 181.865Z" fill="#065B88"/>
<path d="M620.307 181.866C626.267 171.725 632.261 161.603 638.172 151.435C641.572 145.59 644.833 139.669 648.159 133.78C648.375 133.637 648.702 133.546 648.793 133.349C653.033 124.1 655.193 126.124 661.8 129.869C671.471 135.348 681.047 140.995 690.666 146.569C694.14 148.581 694.882 151.741 692.641 155.369C691.056 157.636 689.718 160.066 688.65 162.617C688.799 164.737 687.792 166.484 686.765 168.187C681.065 177.622 675.865 187.341 670.184 196.787C669.313 198.236 668.713 199.976 666.784 200.473C664.933 203.473 663.065 206.462 661.233 209.473C659.307 212.636 657.033 213.962 653.48 211.584C650.458 209.56 647.218 207.859 644.074 206.015C643.853 206.164 643.602 206.264 643.339 206.306C643.075 206.349 642.806 206.333 642.549 206.26C635.772 203.725 629.849 199.725 624.066 195.482C623.76 195.258 623.702 194.788 623.63 194.393C616.802 190.546 616.645 189.959 620.307 181.866Z" fill="#007FF1"/>
<path d="M623.635 194.387L644.075 206.009C644.226 206.507 644.215 207.04 644.043 207.531C643.872 208.022 643.55 208.447 643.122 208.743C635.548 215.325 628.057 222 620.532 228.643C617.984 230.891 614.884 230.691 612.26 229.474C610.999 228.854 609.946 227.881 609.227 226.674C608.507 225.467 608.154 224.078 608.208 222.674C608.225 221.067 608.664 219.494 609.483 218.111C613.711 210.485 618.064 202.928 622.411 195.369C622.655 194.946 623.221 194.711 623.635 194.387Z" fill="#065B88"/>
<path d="M666.787 200.468C669.401 194.047 673.297 188.312 676.773 182.383C680.659 175.755 683.92 168.733 688.65 162.61C693.64 165.686 695.394 170.974 692.675 175.905C688.593 183.305 684.375 190.645 679.965 197.855C676.932 202.813 670.976 203.822 666.787 200.468Z" fill="#065B88"/>
<path d="M596.27 111.228C591.001 120.18 585.67 128.996 580.639 137.977C579.549 139.922 579.019 139.437 577.773 138.477C568.958 131.67 570.26 116.323 580.137 111.106C585.414 108.32 590.711 108.025 596.27 111.228Z" fill="#007FF1"/>
<path d="M621.897 327.39C620.997 322.76 621.972 318.82 622.104 314.885C622.247 313.761 622.029 312.621 621.482 311.629C620.934 310.637 620.085 309.845 619.058 309.367C612.858 305.96 606.748 302.372 600.618 298.831C595.242 295.724 594.16 292.303 597.247 286.819C604.926 273.177 612.695 259.585 620.553 246.042C623.083 241.664 627.884 240.622 632.38 243.242C651.224 254.203 670.066 265.166 688.907 276.131C694.162 279.185 695.344 282.419 692.375 287.731C684.661 301.524 676.83 315.25 668.883 328.911C666.423 333.165 661.816 334.262 657.429 331.748C650.929 328.026 644.51 324.167 638.09 320.312C636.063 319.093 634.297 318.841 632.218 320.399C629.06 322.757 625.691 324.84 621.897 327.39Z" fill="#FE5159"/>
<path d="M664.042 286.353C664.266 293.076 659.767 296.041 654.812 297.992C649.511 300.089 643.924 301.376 638.24 301.809C636.483 301.94 635.24 301.561 634.524 299.771C631.879 293.18 629.306 286.578 629.391 279.314C629.337 277.034 629.982 274.792 631.239 272.89C632.497 270.987 634.307 269.515 636.426 268.672C638.644 267.886 641.046 267.781 643.325 268.369C645.604 268.956 647.655 270.211 649.216 271.972C650.8 273.872 652.34 275.151 655.056 275.415C660.194 275.911 664.066 281.074 664.042 286.353Z" fill="#F5FAFD"/>
<path d="M551.528 552.116L513.004 545.592C512.596 545.546 512.206 545.401 511.866 545.17C511.527 544.939 511.249 544.629 511.057 544.266C510.784 544.147 510.769 543.921 510.827 543.587L510.867 543.348C510.867 543.326 510.867 543.305 510.867 543.281C510.878 543.099 510.913 542.92 510.973 542.748C511.279 540.977 511.573 539.205 511.88 537.436C511.958 537.052 511.922 536.654 511.777 536.29C511.632 535.926 511.385 535.612 511.065 535.386C510.399 534.893 509.614 534.589 508.79 534.504C499.669 532.955 490.549 531.409 481.428 529.865C480.923 529.767 480.407 529.733 479.894 529.765C479.314 529.746 478.748 529.943 478.305 530.317C477.861 530.692 477.573 531.217 477.494 531.792C477.227 533.74 476.829 535.672 476.536 537.617C476.442 538.247 476.247 538.409 475.592 538.296C469.092 537.174 462.592 536.09 456.092 534.996C455.794 534.756 455.424 534.623 455.042 534.619C454.086 534.461 453.869 534.619 453.683 535.59C453.562 536.226 453.47 536.867 453.347 537.504C453.327 537.611 453.29 537.714 453.238 537.81L448.603 537.025C448.606 536.925 448.614 536.824 448.628 536.725C448.722 536.039 448.867 535.36 448.961 534.674C449.077 533.828 448.904 533.582 448.067 533.436C446.419 533.15 444.767 532.874 443.116 532.596C442.858 532.513 442.578 532.535 442.336 532.656C440.336 532.314 438.329 531.979 436.327 531.627C435.927 531.557 435.654 531.564 435.571 532.079C434.915 536.092 434.237 540.103 433.571 544.115C433.832 544.173 434.09 544.242 434.354 544.286L438.594 545.005C439.389 545.872 440.45 546.451 441.61 546.649L523.149 560.462C524.219 560.643 525.319 560.491 526.3 560.025C533.705 561.274 541.11 562.527 548.514 563.784C549.46 563.944 549.537 563.9 549.7 562.95C550.307 559.429 550.905 555.907 551.493 552.382C551.505 552.292 551.519 552.204 551.528 552.116Z" fill="#D0D0D0"/>
<path d="M548.708 563.883L432.866 544.267L428.043 572.749L543.885 592.365L548.708 563.883Z" fill="#222222"/>
<path d="M544.256 590.175L428.414 570.559L423.591 599.041L539.433 618.657L544.256 590.175Z" fill="#D0D0D0"/>
<path d="M487.67 608.688C504.241 608.688 517.675 595.254 517.675 578.683C517.675 562.112 504.241 548.678 487.67 548.678C471.099 548.678 457.665 562.112 457.665 578.683C457.665 595.254 471.099 608.688 487.67 608.688Z" fill="#D1D2D4"/>
<path d="M463.152 574.545C463.949 569.895 466.107 565.587 469.354 562.164C472.6 558.741 476.789 556.358 481.39 555.316C485.991 554.274 490.798 554.62 495.202 556.311C499.606 558.001 503.41 560.96 506.133 564.812C508.855 568.665 510.374 573.238 510.497 577.954C510.62 582.67 509.341 587.317 506.823 591.306C504.304 595.295 500.66 598.447 496.349 600.365C492.039 602.282 487.257 602.878 482.608 602.077C479.52 601.551 476.567 600.422 473.917 598.753C471.267 597.083 468.972 594.907 467.165 592.35C465.357 589.792 464.072 586.903 463.384 583.847C462.695 580.792 462.616 577.631 463.152 574.545Z" fill="#414143"/>
<path d="M490.385 556.867C494.661 557.619 498.619 559.619 501.761 562.616C504.903 565.613 507.087 569.473 508.04 573.709C508.992 577.945 508.67 582.368 507.113 586.422C505.557 590.475 502.836 593.977 499.293 596.487C495.75 598.996 491.543 600.402 487.203 600.526C482.863 600.65 478.583 599.486 474.903 597.183C471.223 594.879 468.306 591.538 466.521 587.58C464.736 583.622 464.162 579.225 464.871 574.941C465.337 572.068 466.37 569.317 467.91 566.848C469.45 564.379 471.466 562.241 473.841 560.558C476.216 558.876 478.902 557.683 481.742 557.05C484.582 556.416 487.52 556.354 490.385 556.867Z" fill="#202221"/>
<path d="M484.741 540.128C485.032 538.412 485.341 536.697 485.605 534.977C485.674 534.54 485.79 534.377 486.276 534.464C491.727 535.404 497.18 536.331 502.635 537.245C502.915 537.293 503.227 537.279 503.141 537.745C502.811 539.522 502.504 541.303 502.189 543.081C502.11 543.123 502.023 543.149 501.934 543.158C501.845 543.166 501.755 543.156 501.67 543.129C499.96 542.81 498.234 542.587 496.514 542.329C496.426 542.316 496.338 542.298 496.251 542.278C495.997 542.22 495.768 542.124 495.765 541.816C495.758 541.747 495.766 541.678 495.79 541.613C495.813 541.549 495.851 541.49 495.901 541.442C495.95 541.394 496.009 541.358 496.075 541.336C496.14 541.314 496.21 541.307 496.278 541.316C497.01 541.385 497.119 540.916 497.2 540.372C497.318 539.572 497.463 538.786 497.6 537.994C497.632 537.904 497.642 537.808 497.629 537.714C497.616 537.62 497.581 537.53 497.527 537.452C497.473 537.373 497.401 537.309 497.317 537.264C497.233 537.22 497.139 537.196 497.044 537.194C495.217 536.885 493.392 536.572 491.565 536.269C491.475 536.237 491.379 536.227 491.284 536.24C491.19 536.253 491.099 536.288 491.021 536.343C490.943 536.397 490.879 536.47 490.834 536.554C490.79 536.639 490.766 536.733 490.765 536.828C490.61 537.728 490.465 538.635 490.304 539.536C490.27 539.626 490.259 539.723 490.271 539.818C490.284 539.914 490.319 540.005 490.374 540.083C490.429 540.162 490.503 540.226 490.588 540.27C490.674 540.314 490.769 540.337 490.865 540.336C491.876 540.511 492.892 540.669 493.901 540.86C494.228 540.923 494.578 540.969 494.663 541.391C494.613 541.539 494.529 541.673 494.419 541.783C494.309 541.892 494.174 541.975 494.027 542.025C493.879 542.074 493.722 542.089 493.567 542.067C493.413 542.046 493.266 541.989 493.137 541.901C492.708 541.667 492.238 541.516 491.753 541.456C489.664 541.103 487.576 540.748 485.488 540.392C485.215 540.397 484.95 540.304 484.741 540.128Z" fill="#211F20"/>
<path d="M494.592 541.383C494.434 541.138 494.164 541.17 493.931 541.129C492.766 540.929 491.601 540.723 490.431 540.549C490.001 540.485 489.87 540.306 489.949 539.878C490.162 538.737 490.355 537.591 490.534 536.444C490.604 535.998 490.802 535.834 491.259 535.913C493.348 536.278 495.438 536.632 497.529 536.974C497.929 537.041 498.042 537.231 497.971 537.618C497.761 538.759 497.552 539.903 497.382 541.05C497.31 541.533 497.131 541.714 496.636 541.595C496.414 541.543 496.036 541.338 495.963 541.734C495.88 542.194 496.34 542.083 496.581 542.126C498.449 542.457 500.321 542.765 502.19 543.079C502.194 543.121 502.186 543.163 502.169 543.201C501.33 543.195 500.496 543.074 499.69 542.841C498.623 542.593 497.53 542.82 496.472 542.541C496.047 542.428 495.637 542.326 495.472 541.873C495.307 541.42 494.841 541.624 494.592 541.383Z" fill="#544A4F"/>
<path d="M484.491 591.002C482.019 590.575 479.729 589.424 477.912 587.694C476.094 585.965 474.831 583.736 474.281 581.288C473.731 578.84 473.92 576.284 474.824 573.944C475.727 571.604 477.305 569.584 479.357 568.141C481.409 566.698 483.843 565.896 486.351 565.837C488.859 565.778 491.328 566.464 493.446 567.809C495.564 569.154 497.235 571.097 498.248 573.392C499.261 575.687 499.57 578.231 499.136 580.702C498.857 582.343 498.256 583.912 497.367 585.319C496.478 586.727 495.32 587.944 493.959 588.902C492.597 589.859 491.06 590.538 489.435 590.898C487.81 591.259 486.13 591.294 484.491 591.002Z" fill="#065B88"/>
<path d="M488.344 574.705C488.159 575.688 487.687 576.595 486.989 577.312C486.29 578.029 485.396 578.523 484.418 578.734C483.439 578.945 482.421 578.862 481.489 578.496C480.558 578.13 479.755 577.497 479.182 576.677C478.608 575.857 478.289 574.886 478.265 573.886C478.241 572.885 478.513 571.9 479.046 571.053C479.58 570.207 480.351 569.536 481.264 569.126C482.177 568.716 483.191 568.585 484.178 568.748C484.847 568.856 485.488 569.097 486.063 569.457C486.637 569.817 487.133 570.289 487.522 570.845C487.91 571.4 488.183 572.028 488.325 572.691C488.466 573.355 488.472 574.039 488.344 574.705Z" fill="#85C4D9"/>
<path d="M504.727 537.545C504.785 537.2 504.734 536.846 504.581 536.532C504.518 536.352 504.42 536.186 504.292 536.044C504.019 535.719 503.622 535.728 503.255 535.668C500.601 535.238 497.964 534.721 495.299 534.357C495.281 534.372 495.274 534.39 495.257 534.405C493.531 534.113 491.806 533.82 490.081 533.525C490.066 533.503 490.063 533.48 490.047 533.458C488.673 533.164 487.28 532.982 485.898 532.724C485.678 532.693 485.454 532.721 485.248 532.805C485.218 532.815 485.199 532.836 485.17 532.847C485.104 532.872 485.042 532.906 484.985 532.947C484.79 533.085 484.626 533.262 484.503 533.466C484.379 533.67 484.298 533.898 484.266 534.134C483.877 536.06 483.553 538.002 483.266 539.946C483.209 540.291 483.261 540.645 483.414 540.96C483.477 541.139 483.575 541.305 483.702 541.446C483.975 541.771 484.373 541.762 484.74 541.822C487.392 542.252 490.031 542.769 492.694 543.133C492.712 543.118 492.721 543.102 492.737 543.087L497.913 543.966C497.926 543.988 497.929 544.011 497.946 544.035C499.321 544.327 500.715 544.509 502.095 544.767C502.316 544.798 502.541 544.77 502.747 544.686C502.777 544.676 502.795 544.656 502.823 544.644C502.889 544.619 502.952 544.585 503.009 544.544C503.204 544.406 503.368 544.229 503.492 544.025C503.615 543.821 503.696 543.593 503.728 543.357C504.118 541.431 504.44 539.49 504.727 537.545ZM501.035 542.554C497.446 541.962 493.857 541.367 490.273 540.744C488.823 540.492 487.373 540.252 485.92 539.992C485.543 539.923 485.191 539.816 485.274 539.325C485.522 537.865 485.689 536.389 486.053 534.947C486.207 534.828 486.462 534.856 486.962 534.938C490.551 535.53 494.139 536.125 497.722 536.749C499.173 537.001 500.622 537.24 502.076 537.501C502.452 537.568 502.805 537.676 502.722 538.166C502.473 539.626 502.307 541.102 501.943 542.544C501.788 542.666 501.533 542.636 501.033 542.554H501.035Z" fill="#A7A8AC"/>
<path d="M456.934 531.286L444.219 529.133C442.795 528.892 441.444 529.851 441.203 531.275L440.774 533.812C440.532 535.237 441.492 536.587 442.916 536.828L455.631 538.981C457.056 539.223 458.406 538.263 458.647 536.839L459.077 534.302C459.318 532.877 458.359 531.527 456.934 531.286Z" fill="#648FAA"/>
<path d="M282.258 506.968L279.977 507.668C279.894 507.773 279.79 507.859 279.673 507.923C279.555 507.986 279.426 508.025 279.292 508.038C279.159 508.05 279.025 508.035 278.898 507.994C278.771 507.953 278.653 507.887 278.552 507.799C276.004 508.399 273.416 508.071 270.852 508.12C266.383 508.207 261.901 508.351 257.447 508.281C253.973 508.226 250.486 508.481 247.006 508.156C245.071 507.974 243.121 508.34 241.152 508.192C239.752 508.086 239.422 507.673 239.426 506.347C239.465 491.714 239.472 477.081 239.448 462.447C239.448 453.41 239.484 444.373 239.415 435.336C239.403 433.836 239.876 433.497 241.299 433.5C264.906 433.536 288.513 433.531 312.119 433.485C313.706 433.485 314.042 434 314.039 435.48C313.997 455.459 314.004 475.439 314.06 495.419C314.104 495.925 313.974 496.431 313.691 496.854C313.408 497.276 312.989 497.588 312.504 497.74C312.376 497.876 312.209 497.967 312.025 498.001C311.842 498.035 311.653 498.01 311.485 497.929C310.547 496.729 309.394 495.718 308.43 494.538C308.297 494.312 308.116 494.118 307.9 493.97C307.684 493.823 307.437 493.725 307.178 493.684C306.919 493.643 306.655 493.66 306.403 493.734C306.152 493.807 305.92 493.936 305.724 494.11C298.99 498.867 291.34 501.879 283.998 505.474C283.416 505.673 282.916 506.06 282.578 506.574C282.485 506.716 282.378 506.848 282.258 506.968Z" fill="#FE8CCB"/>
<path d="M308.037 499.144C301.743 501.052 295.461 502.999 289.151 504.85C286.922 505.64 284.631 506.241 282.301 506.645C281.582 505.574 282.801 505.453 283.16 505.323C288.598 503.352 293.414 500.093 298.755 497.906C301.256 496.767 303.595 495.303 305.711 493.55C306.77 492.735 307.679 492.783 308.374 493.833C309.293 495.22 311.211 495.823 311.41 497.752L309.123 498.805C308.864 499.244 308.464 499.239 308.037 499.144Z" fill="#FE74B9"/>
<path d="M305.628 368.976C305.374 369.118 305.128 369.799 304.857 369.276C304.199 368.002 302.937 367.516 301.888 366.783C284.373 354.558 266.847 342.349 249.308 330.158C248.635 329.567 247.862 329.1 247.026 328.78C246.543 328.652 246.578 328.306 246.772 327.942C248.231 326.296 249.532 324.517 250.658 322.628C251.325 321.664 251.798 321.585 252.758 322.258C271.339 335.237 289.939 348.189 308.558 361.116C309.687 361.901 309.895 362.542 309.058 363.706C307.747 365.322 306.594 367.061 305.614 368.897L305.628 368.976Z" fill="#FDEB3F"/>
<path d="M246.421 403.675C245.195 402.653 243.591 402.375 242.178 401.891C240.522 401.246 238.966 400.371 237.555 399.291C228.871 393.264 220.219 387.191 211.512 381.202C210.296 380.365 210.162 379.802 211.024 378.565C224.157 359.765 237.265 340.949 250.346 322.117C250.694 321.617 250.852 320.847 251.696 320.845C251.711 321.062 251.707 321.279 251.684 321.495C250.754 323.146 249.716 324.733 248.575 326.246C248.233 326.787 247.711 327.246 247.798 327.978C248.052 328.737 248.751 329.028 249.329 329.429C266.924 341.679 284.519 353.93 302.112 366.183C303.241 366.968 304.326 367.806 305.392 368.671C305.594 368.763 305.768 368.909 305.892 369.093C297.947 380.523 290.001 391.952 282.055 403.381C280.213 406.03 278.324 408.648 276.555 411.343C276.362 411.776 276.009 412.117 275.57 412.296C275.131 412.475 274.64 412.478 274.199 412.304C273.185 411.989 272.149 411.736 271.124 411.454C271.146 411.373 271.169 411.291 271.191 411.209C271.311 411.035 271.48 410.899 271.676 410.819C271.872 410.739 272.088 410.717 272.296 410.757C274.018 411.191 273.71 410.265 273.396 409.234C273.072 408.266 273.026 407.227 273.263 406.234C273.536 405.184 273.263 404.669 272.05 404.734C268.606 404.95 265.151 404.916 261.712 404.634C258.805 404.368 255.893 404.103 253.03 403.558C249.764 402.937 246.398 402.808 242.977 401.365C244.613 402.309 246.462 401.887 247.463 403.434C247.271 404.225 246.791 403.705 246.421 403.675Z" fill="#FCF46C"/>
<path d="M271.299 411.33C267.799 410.244 264.289 409.191 260.799 408.066C257.155 406.889 253.525 405.666 249.899 404.414C249.071 404.129 248.092 404.268 247.414 403.553C245.945 402.403 243.937 402.43 242.461 401.233C246.451 402.222 250.52 402.69 254.561 403.308C260.556 404.345 266.655 404.642 272.722 404.19C273.622 404.107 274.041 404.451 273.847 405.267C273.424 407.006 273.557 408.834 274.227 410.493C274.539 411.308 274.245 412.041 273.153 411.431C272.878 411.259 272.563 411.159 272.239 411.142C271.915 411.124 271.591 411.189 271.299 411.33Z" fill="#FBE722"/>
<path d="M305.614 368.896C306.014 366.945 307.507 365.642 308.577 364.112C309.527 362.75 309.545 361.994 308.071 360.972C289.764 348.289 271.49 335.559 253.247 322.784C251.83 321.79 251.235 322.084 250.34 323.367C249.24 324.947 248.487 326.832 246.773 327.941C248.344 325.678 249.914 323.414 251.484 321.15C270.364 334.309 289.243 347.47 308.122 360.634C310.582 362.351 310.512 361.818 308.783 364.344C307.74 365.87 306.673 367.378 305.614 368.896Z" fill="#FEEC01"/>
<defs>
<linearGradient id="paint0_linear_7_1295" x1="286.153" y1="356.292" x2="471.068" y2="356.292" gradientUnits="userSpaceOnUse">
<stop stop-color="white" stop-opacity="0.302"/>
<stop offset="1" stop-color="white" stop-opacity="0"/>
</linearGradient>
<linearGradient id="paint1_linear_7_1295" x1="372.731" y1="356.225" x2="521.847" y2="356.225" gradientUnits="userSpaceOnUse">
<stop stop-color="white" stop-opacity="0.302"/>
<stop offset="1" stop-color="white" stop-opacity="0"/>
</linearGradient>
<linearGradient id="paint2_linear_7_1295" x1="431.73" y1="359.604" x2="580.907" y2="359.604" gradientUnits="userSpaceOnUse">
<stop stop-color="white" stop-opacity="0.302"/>
<stop offset="1" stop-color="white" stop-opacity="0"/>
</linearGradient>
</defs>
</svg>
