<svg width="539" height="542" viewBox="0 0 539 542" fill="none" xmlns="http://www.w3.org/2000/svg">
<path opacity="0.3" d="M474.176 460.568C460.167 475.008 447.631 483.497 438.034 489.905C344.434 552.405 237.434 534.39 204.356 528.233C150.985 518.299 105.932 511.292 67.2241 476.32C-20.7319 396.854 -16.4539 231.084 50.7561 128.395C58.7221 116.219 125.83 16.741 233.058 2.72702C235.681 2.38402 237.637 2.18902 239.351 2.00702C255.939 0.251018 358.73 -9.01898 442.551 61.207C461.647 77.2595 478.232 96.0792 491.757 117.041C557.225 218.151 557.433 374.75 474.173 460.571L474.176 460.568Z" fill="url(#paint0_linear_7_1829)"/>
<path d="M60.566 31.698C60.066 113.093 58.683 393.849 62.846 493.27C63.287 503.803 70.634 512.152 79.646 512.362C124.219 513.399 287.593 515.27 360.403 510.601C375.569 509.628 387.421 495.065 387.47 477.295C387.703 391.865 387.438 151.595 377.846 41.673C376.696 28.502 367.693 18.135 356.419 16.987C307.819 12.037 143.601 0.621003 80.719 6.344C69.379 7.376 60.646 18.389 60.564 31.698H60.566Z" fill="url(#paint1_linear_7_1829)"/>
<path d="M80.816 56.365C79.404 122.077 75.116 340.681 78.733 421.439C79.261 433.239 87.36 442.672 97.454 443.211C139.013 445.431 280.754 449.571 341.554 442.953C352.503 441.761 360.954 431.259 361.354 418.4C363.435 351.35 369.241 147.772 365.741 67.917C365.183 55.178 356.588 44.897 345.715 43.917C300.73 39.873 150.051 30.908 98.355 34.987C88.655 35.752 81.062 44.987 80.817 56.362L80.816 56.365Z" fill="url(#paint2_linear_7_1829)"/>
<path opacity="0.5" d="M170.498 19.217C170.535 21.717 172.23 23.748 174.363 23.847C184.895 24.334 214.563 25.713 227.822 26.413C230.436 26.551 232.445 23.773 231.905 20.776L231.813 20.265C231.698 19.3329 231.281 18.464 230.627 17.7905C229.972 17.117 229.115 16.6758 228.187 16.534C219.219 15.708 192.161 13.452 174.271 14.469C172.12 14.59 170.46 16.7 170.498 19.217Z" fill="white"/>
<path d="M92.936 265.567C92.936 265.567 130.357 364.258 142.18 384.789C155.904 408.621 195.98 393.435 193.99 373.489C192 353.543 145.168 271.106 145.168 271.106L92.936 265.567Z" fill="url(#paint3_linear_7_1829)"/>
<path d="M143.494 193.676L376.079 113.035L373.636 331.263L137.136 278.494L143.494 193.676Z" fill="url(#paint4_linear_7_1829)"/>
<path d="M376.298 334.929C388.918 334.929 399.149 284.719 399.149 222.781C399.149 160.843 388.918 110.633 376.298 110.633C363.678 110.633 353.447 160.843 353.447 222.781C353.447 284.719 363.678 334.929 376.298 334.929Z" fill="url(#paint5_linear_7_1829)"/>
<path d="M378.033 327.261C375.968 325.161 371.469 317.061 367.611 296.104C363.883 275.855 361.83 249.59 361.83 222.149C361.83 194.708 363.883 168.443 367.611 148.194C371.468 127.24 375.967 119.138 378.033 117.037C380.098 119.137 384.598 127.237 388.455 148.194C392.183 168.443 394.236 194.708 394.236 222.149C394.236 249.59 392.183 275.855 388.455 296.104C384.598 317.057 380.098 325.16 378.033 327.261Z" fill="url(#paint6_linear_7_1829)"/>
<mask id="mask0_7_1829" style="mask-type:luminance" maskUnits="userSpaceOnUse" x="361" y="117" width="61" height="211">
<path d="M378.033 327.261C375.968 325.161 371.469 317.061 367.611 296.104C363.883 275.855 361.83 249.59 361.83 222.149C361.83 194.708 363.883 168.443 367.611 148.194C371.468 127.24 375.967 119.138 378.033 117.037C380.098 119.137 384.598 127.237 388.455 148.194C392.183 168.443 421.6 194.708 421.6 222.149C421.6 249.59 392.183 275.855 388.455 296.104C384.598 317.057 380.098 325.16 378.033 327.261Z" fill="white"/>
</mask>
<g mask="url(#mask0_7_1829)">
<path d="M407.322 221.314C407.322 240.369 397.057 255.814 376.74 255.814C356.423 255.814 339.953 240.367 339.953 221.314C339.953 202.261 356.423 186.814 376.74 186.814C397.057 186.814 407.322 202.258 407.322 221.314Z" fill="url(#paint7_linear_7_1829)"/>
</g>
<path d="M105.981 188.985C120.53 187.248 135.268 187.977 149.575 191.142C143.986 220.342 144.83 250.767 151.293 282.276H103.447C99.7542 282.278 96.1819 280.962 93.3728 278.565C90.5638 276.168 88.7026 272.847 88.124 269.2C85.739 254.1 82.824 228.711 85.933 208.322C86.6911 203.346 89.0644 198.757 92.6871 195.263C96.3098 191.769 100.981 189.562 105.981 188.984V188.985Z" fill="url(#paint8_linear_7_1829)"/>
<path d="M134.696 211.346H97.418C96.8066 211.346 96.2065 211.181 95.681 210.869C95.1555 210.556 94.7239 210.108 94.4318 209.571C94.1396 209.033 93.9978 208.428 94.021 207.817C94.0443 207.206 94.2319 206.612 94.564 206.099C94.6303 205.989 94.718 205.893 94.8221 205.817C94.9262 205.742 95.0444 205.688 95.1697 205.659C95.295 205.63 95.4248 205.626 95.5515 205.649C95.6782 205.671 95.7992 205.718 95.9071 205.788C96.0151 205.858 96.1079 205.949 96.18 206.056C96.2521 206.162 96.302 206.282 96.3268 206.408C96.3516 206.534 96.3508 206.664 96.3244 206.79C96.2979 206.916 96.2465 207.035 96.173 207.141C96.0282 207.365 95.9464 207.624 95.9364 207.89C95.9263 208.156 95.9882 208.42 96.1157 208.655C96.2431 208.889 96.4313 209.084 96.6605 209.22C96.8897 209.356 97.1514 209.428 97.418 209.428H134.696C135.089 209.428 135.466 209.271 135.744 208.994C136.022 208.716 136.178 208.339 136.179 207.946V205.293C136.178 204.9 136.022 204.523 135.744 204.245C135.466 203.967 135.089 203.811 134.696 203.811H97.142C96.8931 203.803 96.6572 203.698 96.484 203.52C96.3108 203.341 96.2139 203.102 96.2139 202.853C96.2139 202.604 96.3108 202.364 96.484 202.185C96.6572 202.007 96.8931 201.902 97.142 201.894H134.697C135.599 201.894 136.464 202.252 137.101 202.89C137.739 203.527 138.097 204.392 138.097 205.294V207.947C138.097 208.394 138.009 208.836 137.838 209.248C137.667 209.661 137.416 210.035 137.1 210.351C136.785 210.666 136.41 210.917 135.997 211.088C135.585 211.258 135.143 211.346 134.696 211.346Z" fill="white"/>
<path d="M131.373 227.853H94.092C93.4808 227.853 92.8809 227.688 92.3556 227.375C91.8302 227.063 91.3987 226.615 91.1066 226.078C90.8145 225.541 90.6725 224.935 90.6957 224.324C90.7188 223.714 90.9062 223.12 91.238 222.607C91.3055 222.499 91.3937 222.406 91.4976 222.333C91.6014 222.259 91.7188 222.207 91.843 222.179C91.9671 222.152 92.0955 222.149 92.2207 222.172C92.3459 222.194 92.4653 222.241 92.572 222.311C92.6788 222.38 92.7708 222.469 92.8426 222.574C92.9143 222.679 92.9645 222.797 92.9902 222.922C93.0159 223.047 93.0166 223.175 92.9922 223.3C92.9677 223.425 92.9187 223.543 92.848 223.649C92.7032 223.873 92.6215 224.132 92.6114 224.398C92.6013 224.664 92.6633 224.928 92.7907 225.163C92.9182 225.397 93.1064 225.592 93.3356 225.728C93.5648 225.864 93.8265 225.936 94.093 225.936H131.371C131.764 225.936 132.141 225.779 132.418 225.501C132.696 225.224 132.852 224.847 132.853 224.454V221.802C132.853 221.409 132.697 221.032 132.419 220.754C132.141 220.476 131.764 220.32 131.371 220.319H93.818C93.6895 220.323 93.5616 220.301 93.4416 220.255C93.3217 220.209 93.2123 220.139 93.12 220.049C93.0276 219.96 92.9542 219.853 92.904 219.735C92.8539 219.616 92.8281 219.489 92.8281 219.36C92.8281 219.232 92.8539 219.105 92.904 218.986C92.9542 218.868 93.0276 218.761 93.12 218.672C93.2123 218.582 93.3217 218.512 93.4416 218.466C93.5616 218.42 93.6895 218.398 93.818 218.402H131.373C132.275 218.402 133.14 218.76 133.777 219.398C134.415 220.035 134.773 220.9 134.773 221.802V224.454C134.773 225.356 134.414 226.22 133.777 226.858C133.139 227.495 132.275 227.853 131.373 227.853Z" fill="white"/>
<path d="M177.29 187.769C177.062 187.768 176.841 187.686 176.668 187.537C176.495 187.388 176.381 187.182 176.346 186.957C176.311 186.731 176.358 186.501 176.477 186.306C176.597 186.112 176.783 185.967 177 185.897L353.157 129.84C353.397 129.77 353.656 129.796 353.877 129.914C354.098 130.031 354.264 130.231 354.34 130.469C354.416 130.708 354.396 130.967 354.284 131.191C354.171 131.414 353.976 131.585 353.739 131.667L177.578 187.725C177.484 187.755 177.386 187.77 177.287 187.77L177.29 187.769Z" fill="white"/>
<path d="M153.469 197.508C153.247 197.508 153.032 197.43 152.861 197.289C152.689 197.148 152.572 196.952 152.53 196.734C152.487 196.516 152.521 196.29 152.626 196.095C152.731 195.899 152.901 195.746 153.106 195.662L162.172 191.956C162.289 191.905 162.416 191.877 162.544 191.875C162.672 191.873 162.799 191.897 162.917 191.945C163.036 191.993 163.144 192.065 163.235 192.155C163.325 192.245 163.397 192.353 163.445 192.471C163.494 192.59 163.518 192.717 163.516 192.845C163.515 192.973 163.488 193.1 163.437 193.217C163.386 193.334 163.312 193.44 163.219 193.529C163.126 193.617 163.017 193.686 162.897 193.731L153.831 197.437C153.716 197.484 153.593 197.508 153.469 197.508Z" fill="white"/>
<path d="M134.697 247.19H97.418C96.8066 247.19 96.2065 247.025 95.681 246.712C95.1555 246.4 94.7239 245.952 94.4318 245.415C94.1396 244.878 93.9978 244.272 94.021 243.661C94.0443 243.05 94.2319 242.456 94.564 241.943C94.6323 241.837 94.7208 241.746 94.8244 241.675C94.928 241.603 95.0446 241.553 95.1677 241.527C95.2907 241.5 95.4177 241.498 95.5415 241.521C95.6653 241.544 95.7833 241.591 95.889 241.659C95.9946 241.727 96.0858 241.816 96.1572 241.919C96.2287 242.023 96.279 242.14 96.3054 242.263C96.3318 242.386 96.3337 242.513 96.3109 242.637C96.2882 242.76 96.2413 242.878 96.173 242.984C96.0283 243.208 95.9466 243.467 95.9365 243.733C95.9265 244 95.9884 244.264 96.1158 244.498C96.2433 244.732 96.4315 244.927 96.6606 245.064C96.8898 245.2 97.1514 245.272 97.418 245.272H134.696C135.089 245.272 135.466 245.115 135.744 244.837C136.022 244.559 136.178 244.182 136.178 243.789V241.137C136.177 240.744 136.021 240.367 135.743 240.09C135.465 239.812 135.089 239.656 134.696 239.655H97.142C97.0135 239.659 96.8855 239.637 96.7656 239.591C96.6457 239.545 96.5363 239.475 96.4439 239.385C96.3516 239.296 96.2782 239.189 96.228 239.071C96.1779 238.952 96.152 238.825 96.152 238.696C96.152 238.568 96.1779 238.441 96.228 238.322C96.2782 238.204 96.3516 238.097 96.4439 238.008C96.5363 237.918 96.6457 237.848 96.7656 237.802C96.8855 237.756 97.0135 237.734 97.142 237.738H134.697C135.143 237.738 135.586 237.826 135.998 237.997C136.411 238.168 136.785 238.418 137.101 238.734C137.417 239.05 137.667 239.424 137.838 239.837C138.009 240.249 138.097 240.692 138.097 241.138V243.79C138.097 244.692 137.739 245.557 137.101 246.194C136.464 246.832 135.599 247.19 134.697 247.19Z" fill="white"/>
<path d="M138.187 268.652H100.908C100.297 268.652 99.6965 268.487 99.171 268.174C98.6455 267.862 98.2139 267.414 97.9218 266.877C97.6297 266.34 97.4877 265.734 97.511 265.123C97.5343 264.512 97.7218 263.918 98.054 263.405C98.192 263.192 98.4092 263.042 98.6577 262.989C98.9062 262.935 99.1656 262.983 99.379 263.121C99.5924 263.259 99.7421 263.476 99.7954 263.725C99.8487 263.973 99.801 264.233 99.663 264.446C99.518 264.67 99.4361 264.929 99.4259 265.195C99.4157 265.462 99.4776 265.726 99.6051 265.961C99.7325 266.195 99.9208 266.391 100.15 266.527C100.379 266.663 100.641 266.735 100.908 266.735H138.187C138.58 266.734 138.957 266.578 139.234 266.3C139.512 266.022 139.668 265.646 139.669 265.253V262.6C139.668 262.207 139.512 261.83 139.234 261.553C138.957 261.275 138.58 261.119 138.187 261.118H100.632C100.383 261.11 100.147 261.005 99.974 260.827C99.8008 260.648 99.7039 260.409 99.7039 260.16C99.7039 259.911 99.8008 259.671 99.974 259.492C100.147 259.314 100.383 259.209 100.632 259.201H138.187C138.633 259.201 139.076 259.289 139.488 259.46C139.901 259.631 140.275 259.881 140.591 260.197C140.907 260.512 141.157 260.887 141.328 261.3C141.499 261.712 141.587 262.154 141.587 262.601V265.254C141.586 266.155 141.228 267.02 140.59 267.657C139.953 268.294 139.088 268.652 138.187 268.652Z" fill="white"/>
<path d="M171.481 385.34C169.737 385.339 167.999 385.15 166.295 384.777C162.592 383.99 159.127 382.337 156.185 379.954C153.243 377.571 150.906 374.525 149.367 371.066L119.584 304.9C119.48 304.668 119.472 304.404 119.562 304.167C119.652 303.929 119.833 303.737 120.065 303.633C120.297 303.529 120.561 303.521 120.798 303.611C121.036 303.701 121.228 303.882 121.332 304.114L151.115 370.28C152.533 373.465 154.684 376.269 157.394 378.463C160.103 380.657 163.293 382.179 166.703 382.904C170.036 383.653 173.5 383.603 176.81 382.757C180.12 381.91 183.183 380.292 185.747 378.035C186.028 377.789 186.311 377.536 186.594 377.277C186.686 377.187 186.795 377.116 186.915 377.069C187.035 377.022 187.163 376.999 187.292 377.003C187.421 377.006 187.547 377.036 187.664 377.089C187.782 377.143 187.887 377.219 187.974 377.315C188.061 377.41 188.127 377.521 188.17 377.643C188.213 377.764 188.231 377.893 188.223 378.022C188.215 378.15 188.181 378.276 188.123 378.391C188.065 378.506 187.985 378.609 187.887 378.692C187.593 378.959 187.3 379.22 187.009 379.477C182.72 383.258 177.199 385.343 171.481 385.34Z" fill="white"/>
<path d="M116.054 295.681C115.869 295.681 115.688 295.628 115.533 295.528C115.378 295.427 115.255 295.284 115.179 295.116L111.856 287.734C111.8 287.619 111.767 287.493 111.76 287.364C111.753 287.236 111.772 287.108 111.815 286.987C111.859 286.866 111.926 286.755 112.014 286.661C112.101 286.566 112.206 286.491 112.324 286.438C112.441 286.385 112.567 286.356 112.696 286.353C112.824 286.351 112.952 286.374 113.072 286.421C113.191 286.469 113.3 286.54 113.391 286.63C113.483 286.72 113.555 286.828 113.604 286.947L116.927 294.328C116.993 294.474 117.021 294.634 117.009 294.793C116.997 294.953 116.945 295.107 116.859 295.242C116.772 295.376 116.653 295.487 116.512 295.563C116.372 295.64 116.214 295.681 116.054 295.681Z" fill="white"/>
<path d="M401.875 220.32C401.633 220.32 401.399 220.228 401.222 220.062C401.045 219.897 400.937 219.671 400.92 219.429C400.258 210.092 397.02 203.129 391.302 198.74C381.41 191.146 367.296 193.756 367.154 193.784C366.904 193.832 366.646 193.779 366.436 193.637C366.225 193.494 366.08 193.274 366.031 193.024C365.983 192.775 366.036 192.516 366.179 192.306C366.321 192.095 366.541 191.95 366.791 191.902C367.403 191.784 381.9 189.102 392.469 197.22C398.642 201.96 402.129 209.387 402.832 219.294C402.85 219.547 402.766 219.798 402.6 219.99C402.433 220.182 402.198 220.3 401.944 220.318C401.921 220.318 401.898 220.318 401.875 220.318V220.32Z" fill="white"/>
<path d="M452.173 209.313L450.48 263.084C450.436 264.471 450.672 265.853 451.172 267.147C451.673 268.441 452.429 269.621 453.394 270.618C454.36 271.615 455.516 272.407 456.794 272.948C458.072 273.489 459.445 273.768 460.833 273.768H522.282C524.966 273.768 527.544 272.727 529.475 270.863C531.406 269 532.539 266.46 532.634 263.778L534.316 216.56C534.409 213.941 533.506 211.384 531.789 209.405C530.072 207.425 527.669 206.17 525.063 205.892L463.626 199.338C462.208 199.187 460.775 199.329 459.415 199.758C458.055 200.186 456.798 200.89 455.723 201.827C454.648 202.763 453.778 203.911 453.167 205.199C452.556 206.488 452.218 207.888 452.173 209.313Z" fill="url(#paint9_linear_7_1829)"/>
<path d="M516.028 263.274H461.097C460.311 263.274 459.54 263.058 458.867 262.651C458.195 262.243 457.646 261.66 457.282 260.963C456.918 260.266 456.752 259.483 456.801 258.698C456.85 257.913 457.113 257.157 457.562 256.511L468.987 240.081C469.338 239.577 469.792 239.154 470.32 238.839C470.847 238.525 471.436 238.328 472.046 238.26C472.657 238.192 473.274 238.255 473.858 238.446C474.442 238.636 474.978 238.949 475.431 239.364L479.78 243.286C479.799 243.284 479.816 243.277 479.831 243.265C479.846 243.253 479.857 243.238 479.863 243.22L490.363 220.212C490.688 219.494 491.205 218.879 491.856 218.435C492.507 217.99 493.268 217.733 494.055 217.692C494.842 217.651 495.626 217.827 496.32 218.2C497.014 218.574 497.592 219.132 497.99 219.812L519.736 256.781C520.122 257.435 520.329 258.179 520.334 258.938C520.34 259.697 520.144 260.444 519.767 261.104C519.39 261.763 518.846 262.31 518.189 262.691C517.531 263.071 516.785 263.271 516.026 263.269L516.028 263.274ZM472.601 242.452L472.427 242.471L461.002 258.901C460.988 258.918 460.979 258.938 460.978 258.96C460.976 258.982 460.982 259.004 460.994 259.022C461.002 259.042 461.016 259.058 461.034 259.069C461.052 259.081 461.073 259.086 461.094 259.084H516.025C516.045 259.084 516.066 259.079 516.083 259.068C516.101 259.058 516.116 259.043 516.126 259.026C516.136 259.008 516.141 258.988 516.141 258.967C516.141 258.947 516.135 258.927 516.125 258.909L494.378 221.939C494.361 221.911 494.339 221.893 494.272 221.883C494.25 221.882 494.229 221.888 494.211 221.9C494.193 221.912 494.179 221.93 494.172 221.95L483.672 244.958C483.391 245.577 482.967 246.121 482.435 246.544C481.903 246.967 481.279 247.259 480.612 247.394C479.946 247.529 479.257 247.505 478.602 247.322C477.947 247.14 477.345 246.804 476.845 246.344L472.601 242.452Z" fill="white"/>
<path d="M515.281 229.753C513.305 229.753 511.373 229.167 509.73 228.069C508.087 226.971 506.807 225.411 506.051 223.585C505.295 221.76 505.097 219.751 505.482 217.813C505.868 215.875 506.819 214.095 508.216 212.697C509.614 211.3 511.394 210.348 513.332 209.963C515.27 209.577 517.279 209.775 519.105 210.532C520.93 211.288 522.49 212.568 523.588 214.211C524.686 215.854 525.272 217.786 525.272 219.762C525.27 222.411 524.216 224.951 522.343 226.824C520.47 228.697 517.93 229.751 515.281 229.753ZM515.281 213.96C514.134 213.96 513.013 214.3 512.059 214.937C511.105 215.575 510.362 216.481 509.923 217.54C509.484 218.6 509.369 219.766 509.593 220.891C509.817 222.017 510.369 223.05 511.18 223.861C511.991 224.672 513.025 225.225 514.15 225.448C515.275 225.672 516.441 225.557 517.501 225.118C518.56 224.679 519.466 223.936 520.104 222.982C520.741 222.029 521.081 220.907 521.081 219.76C521.079 218.222 520.468 216.748 519.38 215.66C518.293 214.573 516.819 213.962 515.281 213.96Z" fill="white"/>
<path d="M404.892 101.955V151.105C404.892 153.916 405.975 156.62 407.916 158.654C409.856 160.688 412.506 161.896 415.314 162.028L476.78 164.916C478.258 164.985 479.734 164.754 481.12 164.237C482.505 163.719 483.772 162.926 484.842 161.905C485.912 160.883 486.764 159.656 487.346 158.296C487.928 156.936 488.228 155.472 488.228 153.993V101.955C488.228 99.0549 487.076 96.2735 485.025 94.2228C482.975 92.1721 480.193 91.02 477.293 91.02H415.827C414.391 91.0199 412.969 91.3026 411.642 91.8521C410.315 92.4016 409.11 93.2071 408.094 94.2225C407.079 95.2379 406.273 96.4434 405.724 97.7701C405.174 99.0969 404.892 100.519 404.892 101.955Z" fill="url(#paint10_linear_7_1829)"/>
<path d="M427.154 152.861C426.36 152.861 425.689 152.851 425.154 152.841C424.716 152.831 424.297 152.664 423.971 152.37C423.646 152.077 423.438 151.676 423.384 151.241C423.329 150.807 423.433 150.367 423.676 150.003C423.919 149.638 424.285 149.373 424.707 149.256C429.4 147.836 433.968 146.033 438.364 143.864C420.29 142.391 416.682 133.108 415.984 128.864C414.224 118.156 423.518 106.039 436.701 101.854C450.154 97.586 463.781 99.124 471.422 105.774C475.483 109.308 479.887 116.074 477.81 128.254C473.934 151.036 438.401 152.861 427.154 152.861ZM451.339 140.65L445.612 143.843C441.884 145.878 438.056 147.723 434.141 149.37C448.095 148.529 471.702 144.587 474.581 127.699C476.041 119.127 474.256 112.581 469.273 108.245C461.543 101.516 447.846 101.758 437.697 104.977C426.204 108.627 417.744 119.32 419.224 128.329C420.568 136.508 429.882 141.083 444.784 140.77L451.339 140.65Z" fill="white"/>
<path d="M525.273 177.512L505.43 179.253C504.071 179.372 502.701 179.197 501.416 178.739C500.131 178.281 498.959 177.551 497.981 176.598C497.004 175.646 496.243 174.495 495.751 173.222C495.259 171.949 495.047 170.585 495.13 169.223L496.661 144.101C496.801 141.811 497.765 139.65 499.375 138.016C500.986 136.383 503.134 135.388 505.421 135.216L525.249 133.725C526.6 133.623 527.957 133.812 529.229 134.279C530.501 134.746 531.658 135.479 532.623 136.43C533.588 137.381 534.337 138.528 534.822 139.793C535.307 141.059 535.515 142.413 535.432 143.765L533.916 168.637C533.778 170.906 532.829 173.051 531.243 174.68C529.656 176.308 527.538 177.314 525.273 177.512Z" fill="url(#paint11_linear_7_1829)"/>
<path d="M513.671 171.592C509.88 171.592 505.909 170.013 504.795 167.682C504.353 166.757 504.027 164.94 506.811 163.154C509.392 161.499 511.633 160.917 513.473 161.422C514.007 161.561 514.507 161.804 514.946 162.138C515.385 162.472 515.753 162.89 516.029 163.367C516.061 163.43 516.08 163.5 516.086 163.57C516.091 163.641 516.082 163.713 516.06 163.78C516.038 163.848 516.003 163.91 515.956 163.964C515.91 164.018 515.853 164.062 515.79 164.094C515.727 164.126 515.657 164.145 515.587 164.151C515.516 164.156 515.445 164.147 515.377 164.125C515.31 164.103 515.247 164.068 515.193 164.021C515.139 163.975 515.095 163.918 515.063 163.855C514.854 163.508 514.579 163.206 514.253 162.966C513.927 162.725 513.556 162.552 513.163 162.455C511.658 162.055 509.663 162.608 507.397 164.061C505.807 165.08 505.261 166.14 505.773 167.211C506.897 169.562 512.7 171.42 516.873 170.029C519.179 169.261 519.9 164.199 518.903 155.776C518.345 151.348 517.549 146.952 516.519 142.609C516.495 142.512 516.499 142.411 516.529 142.315C516.559 142.22 516.615 142.135 516.69 142.07C516.766 142.005 516.858 141.962 516.956 141.945C517.055 141.929 517.156 141.94 517.248 141.978C517.615 142.127 526.257 145.703 528.567 152.342C529.061 153.842 529.218 155.432 529.024 156.999C528.831 158.566 528.292 160.071 527.448 161.405C527.413 161.467 527.366 161.521 527.31 161.565C527.254 161.609 527.19 161.641 527.121 161.66C527.053 161.679 526.981 161.684 526.911 161.675C526.84 161.667 526.772 161.644 526.71 161.609C526.648 161.574 526.594 161.527 526.55 161.471C526.507 161.415 526.474 161.351 526.455 161.282C526.436 161.214 526.431 161.142 526.44 161.072C526.448 161.001 526.471 160.933 526.506 160.871C527.272 159.67 527.762 158.314 527.941 156.9C528.121 155.487 527.986 154.052 527.545 152.697C525.836 147.783 520.133 144.563 517.824 143.432C518.31 145.567 519.376 150.557 519.979 155.648C521.073 164.896 520.144 170.079 517.217 171.055C516.071 171.422 514.874 171.603 513.671 171.592Z" fill="white"/>
<path d="M448.742 219.521C462.098 219.521 472.925 208.694 472.925 195.338C472.925 181.982 462.098 171.155 448.742 171.155C435.386 171.155 424.559 181.982 424.559 195.338C424.559 208.694 435.386 219.521 448.742 219.521Z" fill="url(#paint12_linear_7_1829)"/>
<path d="M464.573 193.671C464.317 188.871 461.055 184.837 456.992 184.327C455.422 184.169 453.841 184.506 452.472 185.291C451.103 186.075 450.013 187.268 449.355 188.703C448.694 187.198 447.614 185.914 446.244 185.005C444.873 184.097 443.27 183.601 441.626 183.578C437.439 183.692 434.038 187.494 433.769 192.386C433.672 193.881 433.881 195.38 434.383 196.791C434.886 198.202 435.671 199.496 436.691 200.593L448.511 210.22C448.743 210.421 449.038 210.536 449.346 210.545C449.653 210.553 449.954 210.456 450.197 210.268L461.775 201.484C462.764 200.451 463.524 199.222 464.006 197.876C464.488 196.529 464.681 195.097 464.573 193.671Z" fill="white"/>
<path d="M441.587 314.637C455.839 300.385 455.839 277.277 441.587 263.025C427.334 248.773 404.227 248.773 389.975 263.025C375.723 277.277 375.723 300.385 389.975 314.637C404.227 328.889 427.334 328.889 441.587 314.637Z" fill="url(#paint13_linear_7_1829)"/>
<path d="M415.777 311.717C411.251 311.717 406.826 310.375 403.062 307.86C399.299 305.345 396.365 301.771 394.633 297.589C392.901 293.407 392.448 288.806 393.331 284.366C394.214 279.927 396.394 275.849 399.594 272.648C402.795 269.447 406.873 267.268 411.312 266.385C415.752 265.502 420.353 265.955 424.535 267.687C428.717 269.419 432.291 272.353 434.806 276.116C437.321 279.88 438.663 284.305 438.663 288.831C438.656 294.899 436.243 300.716 431.952 305.006C427.662 309.297 421.845 311.71 415.777 311.717ZM415.777 269.78C412.009 269.78 408.326 270.897 405.193 272.991C402.06 275.084 399.618 278.059 398.176 281.54C396.734 285.022 396.357 288.852 397.092 292.548C397.827 296.243 399.642 299.638 402.306 302.302C404.97 304.966 408.365 306.781 412.06 307.516C415.756 308.251 419.586 307.874 423.068 306.432C426.549 304.99 429.524 302.548 431.618 299.415C433.711 296.282 434.828 292.599 434.828 288.831C434.822 283.78 432.813 278.938 429.241 275.367C425.67 271.796 420.828 269.787 415.777 269.781V269.78Z" fill="white"/>
<path fill-rule="evenodd" clip-rule="evenodd" d="M408.609 297.645V281.191C408.609 280.79 408.715 280.397 408.916 280.051C409.117 279.704 409.407 279.417 409.755 279.219C410.103 279.021 410.497 278.919 410.898 278.922C411.298 278.926 411.691 279.036 412.035 279.24L425.9 287.467C426.238 287.668 426.518 287.953 426.712 288.295C426.907 288.637 427.009 289.024 427.009 289.417C427.009 289.81 426.907 290.197 426.712 290.539C426.518 290.88 426.238 291.166 425.9 291.367L412.035 299.594C411.691 299.798 411.299 299.908 410.898 299.912C410.498 299.916 410.104 299.813 409.756 299.615C409.408 299.417 409.118 299.131 408.917 298.785C408.715 298.439 408.609 298.045 408.609 297.645Z" fill="white"/>
<path d="M197.686 184.268C197.686 184.268 192.406 183.93 190.497 194.65C190.497 194.65 201.385 206.985 217.516 211.508C218.727 211.848 216.779 202.883 216.471 201.663C215.006 195.863 208.76 191.501 197.686 184.263V184.268Z" fill="url(#paint14_linear_7_1829)"/>
<path d="M140.08 164.644L151.153 165.944C151.153 165.944 189.541 132.396 212.276 131.224C212.276 131.224 225.469 152.85 204.786 187.941C204.403 188.617 203.88 189.203 203.251 189.659C202.623 190.116 201.904 190.433 201.143 190.588C200.382 190.744 199.596 190.734 198.839 190.561C198.082 190.387 197.371 190.053 196.753 189.582C196.014 188.991 195.481 188.181 195.233 187.268L200.253 155.824C200.253 155.824 168.289 177.779 162.676 182.081C157.063 186.383 131.799 180.396 140.076 164.646L140.08 164.644Z" fill="url(#paint15_linear_7_1829)"/>
<path d="M237.888 256.005C232.154 249.715 224.64 245.32 216.347 243.405L212.478 245.189C214.053 247.992 215.963 250.593 218.166 252.934C221.766 255.634 227.378 259.372 232.248 260.611C236.982 261.815 238.033 258.992 237.888 256.005Z" fill="url(#paint16_linear_7_1829)"/>
<path d="M216.47 201.664C213.503 202.254 211.77 206.157 204.831 202.628C199.762 200.055 195.055 196.824 190.831 193.019C190.71 193.534 190.595 194.074 190.492 194.651C190.492 194.651 201.892 208.359 218.021 212.882C218.299 212.957 218.592 212.958 218.87 212.885C219.149 212.811 219.403 212.666 219.608 212.464C219.813 212.262 219.961 212.009 220.038 211.731C220.115 211.454 220.118 211.161 220.046 210.882C219.225 207.678 218.025 204.583 216.47 201.664Z" fill="url(#paint17_linear_7_1829)"/>
<path d="M240.977 259.886C240.032 258.527 239 257.23 237.888 256.004C238.033 258.992 236.983 261.815 232.248 260.61C227.378 259.371 221.768 255.631 218.166 252.933C222.525 257.633 229.38 262.881 238.712 263.714C239.176 263.758 239.644 263.67 240.06 263.458C240.476 263.247 240.823 262.921 241.06 262.519C241.298 262.118 241.416 261.657 241.401 261.191C241.387 260.724 241.24 260.272 240.977 259.886Z" fill="url(#paint18_linear_7_1829)"/>
<path d="M139.545 172.702L191.333 179.345C191.333 179.345 218.072 207.318 219.061 245.307C219.061 245.307 219.63 248.159 214.222 248.001C203.151 238.049 194.358 225.825 188.441 212.165C177.1 185.138 153.011 191.486 153.011 191.486C123.959 197.732 116.054 182.471 116.211 179.099L139.542 172.699L139.545 172.702Z" fill="url(#paint19_linear_7_1829)"/>
<path d="M145.669 131.078C145.669 131.078 147.969 159.708 174.023 173.983L183.886 173.978L185.752 177.908L162.846 175.958C150.604 168.528 141.266 157.139 136.379 143.678C136.119 142.942 131.806 130.523 145.669 131.078Z" fill="url(#paint20_linear_7_1829)"/>
<path d="M143.815 172.74C143.815 172.74 139.491 154.74 140.093 137.814C142.725 136.029 145.47 134.417 148.31 132.986C148.795 132.771 149.181 132.382 149.392 131.896C149.603 131.409 149.623 130.862 149.449 130.361C147.833 125.69 136.964 106.817 136.025 106.461C130.925 104.533 110.576 91.761 92.9631 110.74C85.4041 118.886 89.9941 147.229 116.214 179.098L117.173 179.398C120.411 180.42 123.9 180.318 127.073 179.11L143.814 172.735L143.815 172.74Z" fill="url(#paint21_linear_7_1829)"/>
<path d="M122.901 139.631C122.901 139.631 138.088 162.582 160.278 168.279C160.278 168.279 166.728 163.65 170.839 166.055C174.95 168.46 179.909 177.529 179.909 177.529L150.957 174.129C150.957 174.129 123.695 169.954 111.963 151.749C113.745 146.069 117.448 142.986 122.9 139.627L122.901 139.631Z" fill="url(#paint22_linear_7_1829)"/>
<path d="M118.349 89.541L112.981 101.959C112.86 102.236 112.83 102.544 112.896 102.839C112.961 103.134 113.119 103.401 113.346 103.6C115.145 105.125 117.29 106.188 119.593 106.696C121.897 107.203 124.289 107.14 126.563 106.512C126.953 106.415 127.306 106.208 127.583 105.917C127.859 105.626 128.047 105.262 128.124 104.868L130.354 93.768L118.349 89.541Z" fill="url(#paint23_linear_7_1829)"/>
<path d="M142.165 81.767C142.165 81.767 138.703 94.886 133.097 98.388C127.491 101.89 117.868 97.629 115.675 87.176L124.412 70.767L142.165 81.767Z" fill="url(#paint24_linear_7_1829)"/>
<path d="M122.349 81.807C122.437 81.8477 122.532 81.8687 122.629 81.8687C122.726 81.8686 122.821 81.8474 122.909 81.8067C122.997 81.766 123.074 81.7066 123.137 81.6327C123.199 81.5589 123.245 81.4723 123.27 81.379C123.723 79.5566 124.468 77.8197 125.477 76.236C125.477 76.236 125.193 74.428 129.796 77.649C134.399 80.87 141.322 85.619 145.937 83.816C150.437 82.058 156.058 71.216 144.618 72.002C144.517 72.0091 144.416 71.9928 144.322 71.9546C144.228 71.9164 144.144 71.8572 144.076 71.7815C144.009 71.7059 143.959 71.6158 143.932 71.5181C143.904 71.4204 143.9 71.3178 143.918 71.218C144.274 69.369 144.592 65.056 140.408 63.169C136.493 61.403 134.051 62.978 133.008 63.978C132.936 64.0471 132.85 64.099 132.756 64.13C132.661 64.1611 132.561 64.1703 132.462 64.1572C132.363 64.144 132.269 64.1087 132.186 64.054C132.103 63.9992 132.033 63.9265 131.982 63.841C130.95 62.108 128.039 58.335 122.917 59.91C118.698 61.21 117.784 63.61 117.67 65.153C117.662 65.2672 117.625 65.3775 117.562 65.4731C117.499 65.5686 117.413 65.6463 117.311 65.6985C117.209 65.7506 117.095 65.7755 116.981 65.7707C116.866 65.7659 116.755 65.7315 116.658 65.671C115.496 64.961 113.558 64.435 111.383 66.585C108.383 69.557 111.783 72.839 112.822 73.716C112.906 73.786 112.971 73.8755 113.012 73.9767C113.053 74.0778 113.069 74.1875 113.057 74.296C112.868 76.003 112.257 83.472 115.497 88.105C115.563 88.1967 115.651 88.2703 115.752 88.3191C115.854 88.3678 115.966 88.3901 116.079 88.3839C116.192 88.3778 116.301 88.3433 116.397 88.2837C116.493 88.2241 116.572 88.1413 116.627 88.043L120.3 81.543C120.382 81.3974 120.516 81.288 120.675 81.2364C120.834 81.1847 121.007 81.1946 121.159 81.264L122.359 81.811L122.349 81.807Z" fill="url(#paint25_linear_7_1829)"/>
<path d="M122.247 83.202C122.247 83.202 121.331 75.857 118.397 77.863C115.463 79.869 118.221 85.363 121.157 86.694L122.247 83.202Z" fill="url(#paint26_linear_7_1829)"/>
<path d="M178.262 178.977L196.346 137.148C196.706 136.315 197.312 135.611 198.083 135.131C198.854 134.651 199.752 134.417 200.659 134.461L218.351 135.319C218.765 135.339 219.168 135.462 219.523 135.676C219.878 135.89 220.174 136.189 220.385 136.546C220.597 136.902 220.716 137.306 220.733 137.72C220.75 138.134 220.664 138.546 220.482 138.919L201.094 178.619C200.788 179.245 200.31 179.772 199.716 180.136C199.121 180.501 198.435 180.688 197.738 180.677L180.23 180.569L178.262 178.977Z" fill="url(#paint27_linear_7_1829)"/>
<path d="M180.23 180.571L180.145 180.559L143.538 174.379C143.319 174.347 143.109 174.271 142.92 174.156C142.731 174.042 142.567 173.891 142.437 173.712C142.307 173.533 142.214 173.33 142.164 173.115C142.113 172.9 142.106 172.676 142.143 172.458C142.18 172.24 142.26 172.032 142.378 171.845C142.496 171.659 142.651 171.497 142.832 171.371C143.014 171.245 143.218 171.156 143.435 171.11C143.651 171.063 143.874 171.061 144.091 171.102L180.699 177.283C181.124 177.358 181.503 177.595 181.757 177.944C182.01 178.293 182.118 178.727 182.057 179.155C181.996 179.582 181.771 179.969 181.43 180.233C181.089 180.498 180.659 180.619 180.23 180.572V180.571Z" fill="url(#paint28_linear_7_1829)"/>
<path d="M140.054 138.146C140.011 138.141 139.969 138.127 139.931 138.106C139.893 138.084 139.859 138.056 139.832 138.021C139.805 137.987 139.786 137.947 139.774 137.905C139.762 137.863 139.759 137.819 139.764 137.776C140.691 130.089 138.92 119.535 138.903 119.429C138.888 119.342 138.909 119.253 138.96 119.181C139.011 119.109 139.088 119.061 139.175 119.046C139.262 119.031 139.351 119.052 139.423 119.103C139.495 119.154 139.543 119.231 139.558 119.318C139.576 119.425 141.363 130.074 140.424 137.856C140.419 137.899 140.405 137.941 140.384 137.979C140.362 138.017 140.334 138.051 140.299 138.078C140.265 138.105 140.226 138.125 140.184 138.136C140.141 138.148 140.097 138.151 140.054 138.146Z" fill="url(#paint29_linear_7_1829)"/>
<path d="M122.862 139.96C122.812 139.954 122.764 139.937 122.722 139.91C122.679 139.883 122.643 139.847 122.617 139.804C122.548 139.692 115.693 128.504 113.745 121.157C113.723 121.072 113.735 120.981 113.779 120.905C113.823 120.829 113.896 120.774 113.981 120.751C114.066 120.729 114.157 120.741 114.233 120.785C114.309 120.829 114.364 120.902 114.387 120.987C116.31 128.241 123.115 139.346 123.187 139.457C123.219 139.51 123.235 139.571 123.234 139.633C123.233 139.695 123.215 139.755 123.181 139.807C123.148 139.859 123.1 139.9 123.044 139.927C122.989 139.953 122.926 139.964 122.865 139.957L122.862 139.96Z" fill="url(#paint30_linear_7_1829)"/>
<path d="M109.705 154.296L109.472 154.162C98.3931 147.799 92.8231 133.03 92.7721 132.882C92.7569 132.841 92.7499 132.798 92.7516 132.754C92.7532 132.71 92.7634 132.668 92.7816 132.628C92.7998 132.588 92.8257 132.553 92.8577 132.523C92.8896 132.493 92.9272 132.47 92.9681 132.455C93.009 132.44 93.0525 132.433 93.0961 132.435C93.1397 132.436 93.1825 132.446 93.2222 132.465C93.2618 132.483 93.2975 132.509 93.3272 132.541C93.3568 132.573 93.3799 132.61 93.3951 132.651C93.4491 132.796 98.8611 147.137 109.575 153.451L110.953 151.919C111.012 151.854 111.095 151.814 111.183 151.81C111.271 151.805 111.357 151.836 111.423 151.895C111.488 151.954 111.527 152.036 111.532 152.124C111.537 152.212 111.506 152.299 111.447 152.364L109.708 154.297L109.705 154.296Z" fill="url(#paint31_linear_7_1829)"/>
<path d="M443.972 280.001C435.536 285.625 427.803 298.279 443.272 318.667C457.144 336.953 471.393 348.896 469.283 360.145C467.173 371.394 483.619 399.745 517.083 381.235C550.124 362.957 543.797 327.806 503.726 314.449C480.272 306.63 474.858 259.411 443.972 280.001Z" fill="url(#paint32_linear_7_1829)"/>
<path d="M417.133 350.294C417.133 350.294 430.223 365.971 443.404 353.24L448.497 365.05C448.497 365.05 429.248 379.95 414.648 356.504L417.133 350.294Z" fill="url(#paint33_linear_7_1829)"/>
<path d="M449.464 321.19C453.098 320.101 463.678 318.09 473.741 327.376C474.58 328.147 475.191 329.134 475.509 330.229C475.826 331.324 475.837 332.484 475.541 333.585C472.841 343.536 465.706 372.936 471.959 385.657C471.959 385.657 460.939 397.804 448.918 388.014C448.918 388.014 443.524 364.506 436.459 354.186C431.582 347.061 444.237 327.431 447.438 322.686C447.921 321.967 448.638 321.437 449.467 321.186L449.464 321.19Z" fill="url(#paint34_linear_7_1829)"/>
<path d="M455.093 302.222C455.093 302.222 462.425 316.581 463.711 323.175C461.914 324.171 459.882 324.666 457.827 324.61C455.773 324.554 453.771 323.948 452.031 322.855C452.031 322.855 449.446 307.883 448.246 305.3L455.093 302.222Z" fill="url(#paint35_linear_7_1829)"/>
<path d="M438.657 294.127C438.657 294.127 437.29 318.264 447.446 318.603C457.602 318.942 458.586 301.779 458.586 301.779C458.586 301.779 455.586 290.936 450.754 289.672C445.922 288.408 438.654 294.127 438.654 294.127H438.657Z" fill="url(#paint36_linear_7_1829)"/>
<path d="M441.64 286.678C441.64 286.678 437 291.422 437.797 294.378C438.594 297.334 448.546 294.243 450.997 292.848L459.218 301.598C459.218 301.598 458.966 288.635 453.294 284.643C447.622 280.651 441.64 286.678 441.64 286.678Z" fill="url(#paint37_linear_7_1829)"/>
<path d="M455.507 302.013C455.507 302.013 456.744 293.734 460.791 296.062C464.838 298.39 460.491 304.806 457.333 304.406L455.507 302.013Z" fill="url(#paint38_linear_7_1829)"/>
<path d="M434.878 437.374C434.919 438.441 433.045 446.906 432.026 451.422C431.616 453.237 431.901 455.141 432.826 456.756L468.142 516.194C468.569 516.913 468.882 517.693 469.07 518.507C469.717 521.296 471.06 528.132 470.358 534.351L468.531 538.145L476.431 536.351L478.15 515.132L475.913 513.768C473.981 512.59 472.475 510.827 471.613 508.735C468.42 500.978 460.49 481.235 458.445 471.61C456.122 460.674 443.977 451.791 443.977 451.791L446.111 446.747L434.878 437.374Z" fill="url(#paint39_linear_7_1829)"/>
<path d="M485.214 529.05C485.214 529.05 480.947 522.285 480.445 519.65C479.943 517.015 478.545 512.367 475.915 513.767C475.915 513.767 474.675 526.559 475.103 531.557C475.531 536.555 469.453 536.394 469.453 536.394C468.365 536.588 467.357 537.097 466.553 537.856C466.369 538.053 466.244 538.299 466.194 538.565C466.144 538.83 466.17 539.105 466.27 539.356C466.37 539.607 466.54 539.824 466.759 539.982C466.978 540.14 467.237 540.233 467.507 540.249C470.338 540.441 473.181 540.28 475.972 539.77C476.536 539.66 477.047 539.365 477.426 538.933C477.804 538.5 478.027 537.954 478.061 537.381L478.937 522.659L484.319 529.459L485.214 529.05Z" fill="url(#paint40_linear_7_1829)"/>
<path d="M455.977 446.84C455.977 446.84 457.222 500.008 457.391 507.558C457.56 515.108 456.199 531.843 448.629 536.846L451.923 539.284C455.13 536.297 457.873 532.849 460.061 529.052C464.579 521.488 465.945 520.106 465.945 520.106L464.445 517.036C463.789 515.693 463.596 514.171 463.898 512.707C465.532 504.79 470.989 478.456 472.477 472.784C474.235 466.09 474.359 457.15 468.246 449.667C462.133 442.184 455.977 446.84 455.977 446.84Z" fill="url(#paint41_linear_7_1829)"/>
<path d="M462.967 541.683C463.08 541.685 463.19 541.645 463.276 541.571C463.362 541.498 463.418 541.395 463.434 541.283C463.686 539.511 464.734 532.405 465.593 530.565C466.576 528.457 469.787 519.588 465.593 518.835C465.593 518.835 455.162 534.075 453.16 536.129C452.576 536.708 451.824 537.089 451.012 537.218C450.199 537.347 449.366 537.217 448.631 536.847C447.28 537.324 446.093 538.176 445.209 539.304C445.054 539.508 444.958 539.751 444.932 540.007C444.907 540.262 444.954 540.519 445.067 540.75C445.18 540.98 445.355 541.175 445.572 541.311C445.789 541.448 446.041 541.521 446.297 541.523L453.323 541.59C454.32 541.598 455.295 541.305 456.122 540.749C456.949 540.194 457.589 539.401 457.957 538.475C459.194 535.386 461.318 530.856 463.794 528.845L462.508 541.165C462.501 541.23 462.508 541.296 462.528 541.358C462.548 541.42 462.581 541.477 462.624 541.526C462.668 541.574 462.721 541.613 462.78 541.64C462.84 541.667 462.904 541.681 462.969 541.682L462.967 541.683Z" fill="url(#paint42_linear_7_1829)"/>
<path d="M447.251 382.284C447.251 382.284 448.834 387.331 446.402 395.642L431.314 448.332C431.2 448.731 431.242 449.158 431.431 449.526C431.621 449.895 431.944 450.178 432.334 450.317C436.847 451.937 451.684 456.517 471.934 455.117C472.431 455.086 472.904 454.895 473.283 454.572C473.661 454.249 473.925 453.812 474.034 453.327C475.368 447.32 479.922 426.827 480.859 422.614C484.432 406.568 487.891 391.308 470.344 380.845C462.257 384.311 455.243 384.309 447.251 382.284Z" fill="url(#paint43_linear_7_1829)"/>
<path d="M465.451 334.573C465.451 334.573 468.488 377.973 440.445 356.173C440.445 356.173 436.303 352.261 433.313 351.785C431.703 351.529 429.886 351.358 428.552 351.254C428.421 351.243 428.289 351.275 428.178 351.347C428.066 351.418 427.982 351.524 427.937 351.648C427.892 351.772 427.889 351.908 427.929 352.033C427.969 352.159 428.05 352.268 428.158 352.344C429.132 353.101 430.269 353.621 431.479 353.863C433.595 354.082 431.339 355.633 433.643 359.683C435.947 363.733 439.238 362.206 439.238 362.206C439.238 362.206 471.37 395.112 477.786 337.722C478.012 327.046 467.739 327.614 465.452 334.569L465.451 334.573Z" fill="url(#paint44_linear_7_1829)"/>
<path d="M408.527 339.504L418.067 338.247C418.685 338.188 419.305 338.321 419.845 338.627C420.384 338.933 420.816 339.398 421.082 339.958L427.358 353.83C428.539 355.903 427.699 358.652 425.787 358.969L418.126 359.951C417.726 359.985 417.326 359.891 416.984 359.681C416.642 359.471 416.376 359.156 416.226 358.784L407.738 341.843C407.248 340.865 407.658 339.648 408.527 339.504Z" fill="url(#paint45_linear_7_1829)"/>
<path d="M415.037 358.215C415.037 358.215 408.623 348.88 409.368 347.731C410.113 346.582 415.736 344.931 417.056 344.547C418.376 344.163 420.862 352.624 415.037 358.215Z" fill="url(#paint46_linear_7_1829)"/>
<path opacity="0.75" d="M512.785 373.96C512.704 373.959 512.625 373.93 512.563 373.878C512.501 373.826 512.458 373.754 512.443 373.674C512.428 373.594 512.441 373.511 512.48 373.44C512.518 373.368 512.581 373.313 512.656 373.282C515.744 372.053 518.534 370.179 520.838 367.785C523.143 365.39 524.909 362.531 526.019 359.399C527.129 356.266 527.556 352.932 527.273 349.621C526.989 346.31 526.001 343.097 524.375 340.199C519.813 332.066 511.067 327.522 502.61 323.126L501.591 322.596C492.447 317.834 483.535 312.162 480.264 302.981C480.236 302.894 480.242 302.799 480.283 302.717C480.323 302.634 480.394 302.571 480.481 302.54C480.567 302.509 480.662 302.514 480.745 302.552C480.829 302.59 480.894 302.659 480.927 302.745C484.117 311.697 492.9 317.276 501.916 321.972L502.935 322.501C511.484 326.944 520.324 331.538 524.989 339.855C526.664 342.841 527.682 346.15 527.974 349.561C528.265 352.973 527.825 356.407 526.682 359.634C525.538 362.861 523.718 365.806 521.344 368.273C518.969 370.739 516.095 372.67 512.914 373.935C512.873 373.951 512.83 373.96 512.785 373.96Z" fill="white"/>
<path opacity="0.75" d="M503.342 370.721C503.256 370.722 503.173 370.691 503.108 370.634C503.043 370.577 503.002 370.499 502.991 370.413C502.98 370.328 503.001 370.242 503.05 370.171C503.099 370.1 503.172 370.049 503.256 370.029C510.369 368.229 516.309 363.781 519.147 358.129C522.347 351.758 521.33 343.82 516.735 339.254C516.669 339.188 516.632 339.098 516.632 339.004C516.632 338.91 516.669 338.82 516.735 338.754C516.801 338.688 516.891 338.65 516.985 338.65C517.079 338.65 517.169 338.688 517.235 338.754C522.035 343.528 523.11 351.808 519.779 358.443C516.852 364.275 510.741 368.86 503.433 370.708C503.403 370.716 503.373 370.721 503.342 370.721Z" fill="white"/>
<path d="M59.1121 393.32C61.8489 387.894 63.5214 381.995 64.0391 375.94C65.1391 360.277 56.0391 345.852 49.3451 332.366C43.1971 319.971 38.6281 301.502 59.3721 303.146C75.8991 304.456 95.3291 320.926 97.5451 338.1C100.168 358.427 90.2731 384.06 102.005 402.524C118.418 428.355 130.257 422.435 130.257 466.024C130.257 484.649 119.94 494.924 108.124 500.582C99.018 504.944 88.7947 506.415 78.8282 504.796C68.8618 503.176 59.6298 498.545 52.3731 491.524C39.2451 478.824 31.4391 460.555 34.0791 442.218C36.7451 423.698 51.2711 409.654 59.1111 393.318L59.1121 393.32Z" fill="url(#paint47_linear_7_1829)"/>
<path d="M72.9791 533.807C73.1846 533.807 73.384 533.737 73.5456 533.611C73.7073 533.484 73.8218 533.307 73.8711 533.107C84.1591 492.043 89.7582 454.816 90.5152 422.46C91.1212 396.536 88.6382 373.66 83.1332 354.451C78.2212 337.314 71.7572 326.327 67.2002 320.127C62.2212 313.353 58.4302 310.684 58.2712 310.574C58.1719 310.505 58.06 310.456 57.9419 310.431C57.8237 310.405 57.7017 310.403 57.5827 310.424C57.4637 310.445 57.3501 310.49 57.2483 310.555C57.1466 310.621 57.0587 310.705 56.9896 310.805C56.8503 311.005 56.7963 311.253 56.8395 311.493C56.8827 311.733 57.0197 311.947 57.2202 312.086C57.2572 312.112 60.9962 314.76 65.8252 321.366C70.2872 327.466 76.6161 338.294 81.4321 355.202C86.8521 374.23 89.2862 396.917 88.6682 422.633C87.8952 454.801 82.3152 491.819 72.0831 532.659C72.0491 532.795 72.0464 532.937 72.0754 533.074C72.1044 533.211 72.1643 533.339 72.2506 533.45C72.3368 533.56 72.4471 533.649 72.573 533.71C72.6989 533.772 72.8371 533.803 72.9772 533.803L72.9791 533.807Z" fill="url(#paint48_linear_7_1829)"/>
<path d="M42.6442 347.367C43.4957 347.142 44.3822 347.082 45.2562 347.19C50.4262 347.784 52.5492 353.237 54.0682 357.499C55.3682 361.15 56.9022 365.581 56.1342 369.535C55.3032 373.811 50.7632 377.299 47.4682 372.957C43.7232 368.022 38.1032 360.446 38.0682 353.906C37.9785 352.459 38.3822 351.025 39.2134 349.837C40.0446 348.649 41.2541 347.778 42.6442 347.367Z" fill="url(#paint49_linear_7_1829)"/>
<path d="M0.50009 466.295C-1.61491 452.364 3.44909 436.369 5.97609 421.637C7.31209 413.848 7.93009 406.117 6.67609 398.27C5.43209 390.47 1.76609 382.029 5.14609 374.256C11.9571 358.595 28.1461 365.722 37.4241 377.512C48.1871 391.193 51.1291 413.55 55.2171 430.765C57.6811 441.143 61.3941 451.788 62.6941 462.365C64.8481 479.884 60.8861 492.047 52.5061 500.265C48.5952 504.099 43.5484 506.564 38.1203 507.291C32.6922 508.019 27.1745 506.97 22.3921 504.301C13.5091 499.354 3.90809 488.775 0.49209 466.301L0.50009 466.295Z" fill="url(#paint50_linear_7_1829)"/>
<path d="M37.547 531.32C37.7644 531.32 37.9746 531.242 38.1404 531.102C38.3062 530.961 38.4169 530.766 38.4531 530.552C40.9092 513.719 42.1301 496.728 42.1061 479.717C42.1911 452.617 39.2851 412.872 24.9531 377.436C24.8567 377.217 24.6787 377.044 24.4569 376.953C24.235 376.863 23.9867 376.863 23.7647 376.953C23.5426 377.042 23.3643 377.215 23.2675 377.434C23.1706 377.653 23.163 377.901 23.2461 378.126C31.0941 397.532 40.4181 430.908 40.2641 479.711C40.2892 496.622 39.0766 513.513 36.6361 530.247C36.6159 530.366 36.6194 530.488 36.6464 530.606C36.6734 530.724 36.7234 530.836 36.7935 530.934C36.8637 531.033 36.9525 531.117 37.0551 531.181C37.1576 531.245 37.2718 531.288 37.3911 531.308C37.4427 531.316 37.4948 531.32 37.547 531.32Z" fill="url(#paint51_linear_7_1829)"/>
<defs>
<linearGradient id="paint0_linear_7_1829" x1="587.907" y1="622.593" x2="211.057" y2="216.426" gradientUnits="userSpaceOnUse">
<stop stop-color="#B37CFF"/>
<stop offset="1" stop-color="#F895E7"/>
</linearGradient>
<linearGradient id="paint1_linear_7_1829" x1="376.707" y1="578.754" x2="-116.416" y2="165.495" gradientUnits="userSpaceOnUse">
<stop stop-color="#2B3582"/>
<stop offset="1" stop-color="#150E42"/>
</linearGradient>
<linearGradient id="paint2_linear_7_1829" x1="310.961" y1="131.732" x2="-561.093" y2="680.892" gradientUnits="userSpaceOnUse">
<stop stop-color="#53D8FF"/>
<stop offset="1" stop-color="#3840F7"/>
</linearGradient>
<linearGradient id="paint3_linear_7_1829" x1="85.2505" y1="401.03" x2="188.747" y2="318.711" gradientUnits="userSpaceOnUse">
<stop stop-color="#2B3582"/>
<stop offset="1" stop-color="#150E42"/>
</linearGradient>
<linearGradient id="paint4_linear_7_1829" x1="222.917" y1="135.731" x2="351.527" y2="410.361" gradientUnits="userSpaceOnUse">
<stop stop-color="#CB236D"/>
<stop offset="1" stop-color="#4C246D"/>
</linearGradient>
<linearGradient id="paint5_linear_7_1829" x1="503.761" y1="169.623" x2="351.117" y2="172.267" gradientUnits="userSpaceOnUse">
<stop stop-color="#A737D5"/>
<stop offset="1" stop-color="#EF497A"/>
</linearGradient>
<linearGradient id="paint6_linear_7_1829" x1="351.039" y1="224.672" x2="411.196" y2="224.542" gradientUnits="userSpaceOnUse">
<stop stop-color="#A737D5"/>
<stop offset="1" stop-color="#EF497A"/>
</linearGradient>
<linearGradient id="paint7_linear_7_1829" x1="426.927" y1="218.416" x2="264.678" y2="227.297" gradientUnits="userSpaceOnUse">
<stop stop-color="#2B3582"/>
<stop offset="1" stop-color="#150E42"/>
</linearGradient>
<linearGradient id="paint8_linear_7_1829" x1="119.606" y1="276.058" x2="107.801" y2="125.972" gradientUnits="userSpaceOnUse">
<stop stop-color="#2B3582"/>
<stop offset="1" stop-color="#150E42"/>
</linearGradient>
<linearGradient id="paint9_linear_7_1829" x1="453.326" y1="290.9" x2="560.383" y2="102.243" gradientUnits="userSpaceOnUse">
<stop stop-color="#FDF53F"/>
<stop offset="1" stop-color="#D93C65"/>
</linearGradient>
<linearGradient id="paint10_linear_7_1829" x1="400.724" y1="175.571" x2="526.414" y2="9.56219" gradientUnits="userSpaceOnUse">
<stop stop-color="#FDF53F"/>
<stop offset="1" stop-color="#D93C65"/>
</linearGradient>
<linearGradient id="paint11_linear_7_1829" x1="508.989" y1="169.259" x2="567.29" y2="76.0247" gradientUnits="userSpaceOnUse">
<stop stop-color="#53D8FF"/>
<stop offset="1" stop-color="#3840F7"/>
</linearGradient>
<linearGradient id="paint12_linear_7_1829" x1="461.849" y1="158.193" x2="406.373" y2="315.528" gradientUnits="userSpaceOnUse">
<stop stop-color="#53D8FF"/>
<stop offset="1" stop-color="#3840F7"/>
</linearGradient>
<linearGradient id="paint13_linear_7_1829" x1="390.13" y1="235.206" x2="498.824" y2="462.298" gradientUnits="userSpaceOnUse">
<stop stop-color="#53D8FF"/>
<stop offset="1" stop-color="#3840F7"/>
</linearGradient>
<linearGradient id="paint14_linear_7_1829" x1="114.018" y1="152.076" x2="133.036" y2="172.19" gradientUnits="userSpaceOnUse">
<stop stop-color="#2B3582"/>
<stop offset="1" stop-color="#150E42"/>
</linearGradient>
<linearGradient id="paint15_linear_7_1829" x1="152.621" y1="-38.5751" x2="107.72" y2="155.035" gradientUnits="userSpaceOnUse">
<stop stop-color="#53D8FF"/>
<stop offset="1" stop-color="#3840F7"/>
</linearGradient>
<linearGradient id="paint16_linear_7_1829" x1="139.413" y1="202.285" x2="162.161" y2="237.576" gradientUnits="userSpaceOnUse">
<stop stop-color="#2B3582"/>
<stop offset="1" stop-color="#150E42"/>
</linearGradient>
<linearGradient id="paint17_linear_7_1829" x1="119.527" y1="155.788" x2="130.956" y2="80.7011" gradientUnits="userSpaceOnUse">
<stop stop-color="#2B3582"/>
<stop offset="1" stop-color="#150E42"/>
</linearGradient>
<linearGradient id="paint18_linear_7_1829" x1="162.654" y1="170.287" x2="168.058" y2="95.7684" gradientUnits="userSpaceOnUse">
<stop stop-color="#2B3582"/>
<stop offset="1" stop-color="#150E42"/>
</linearGradient>
<linearGradient id="paint19_linear_7_1829" x1="139.972" y1="151.839" x2="75.7143" y2="197.034" gradientUnits="userSpaceOnUse">
<stop stop-color="#53D8FF"/>
<stop offset="1" stop-color="#3840F7"/>
</linearGradient>
<linearGradient id="paint20_linear_7_1829" x1="80.8671" y1="104.029" x2="58.3849" y2="134.775" gradientUnits="userSpaceOnUse">
<stop stop-color="#F9B776"/>
<stop offset="1" stop-color="#F47960"/>
</linearGradient>
<linearGradient id="paint21_linear_7_1829" x1="52.7287" y1="72.4436" x2="-105.897" y2="189.801" gradientUnits="userSpaceOnUse">
<stop stop-color="#FDF53F"/>
<stop offset="1" stop-color="#D93C65"/>
</linearGradient>
<linearGradient id="paint22_linear_7_1829" x1="52.2386" y1="130.644" x2="69.186" y2="56.0569" gradientUnits="userSpaceOnUse">
<stop stop-color="#F9B776"/>
<stop offset="1" stop-color="#F47960"/>
</linearGradient>
<linearGradient id="paint23_linear_7_1829" x1="22.1295" y1="74.8638" x2="23.949" y2="58.5421" gradientUnits="userSpaceOnUse">
<stop stop-color="#F9B776"/>
<stop offset="1" stop-color="#F47960"/>
</linearGradient>
<linearGradient id="paint24_linear_7_1829" x1="31.7814" y1="60.6784" x2="22.5079" y2="34.828" gradientUnits="userSpaceOnUse">
<stop stop-color="#F9B776"/>
<stop offset="1" stop-color="#F47960"/>
</linearGradient>
<linearGradient id="paint25_linear_7_1829" x1="24.6331" y1="12.3627" x2="28.2987" y2="55.0092" gradientUnits="userSpaceOnUse">
<stop stop-color="#2B3582"/>
<stop offset="1" stop-color="#150E42"/>
</linearGradient>
<linearGradient id="paint26_linear_7_1829" x1="23.526" y1="63.1891" x2="6.45395" y2="45.784" gradientUnits="userSpaceOnUse">
<stop stop-color="#F9B776"/>
<stop offset="1" stop-color="#F47960"/>
</linearGradient>
<linearGradient id="paint27_linear_7_1829" x1="88.7717" y1="115.412" x2="126.19" y2="115.412" gradientUnits="userSpaceOnUse">
<stop stop-color="#2B3582"/>
<stop offset="1" stop-color="#150E42"/>
</linearGradient>
<linearGradient id="paint28_linear_7_1829" x1="93.2563" y1="131.772" x2="90.4034" y2="145.568" gradientUnits="userSpaceOnUse">
<stop stop-color="#2B3582"/>
<stop offset="1" stop-color="#150E42"/>
</linearGradient>
<linearGradient id="paint29_linear_7_1829" x1="69.4414" y1="50.8863" x2="23.7797" y2="51.5746" gradientUnits="userSpaceOnUse">
<stop stop-color="#FDF53F"/>
<stop offset="1" stop-color="#D93C65"/>
</linearGradient>
<linearGradient id="paint30_linear_7_1829" x1="55.7844" y1="42.8988" x2="-9.03392" y2="69.8317" gradientUnits="userSpaceOnUse">
<stop stop-color="#FDF53F"/>
<stop offset="1" stop-color="#D93C65"/>
</linearGradient>
<linearGradient id="paint31_linear_7_1829" x1="50.8693" y1="39.9768" x2="-3.3564" y2="108.044" gradientUnits="userSpaceOnUse">
<stop stop-color="#FDF53F"/>
<stop offset="1" stop-color="#D93C65"/>
</linearGradient>
<linearGradient id="paint32_linear_7_1829" x1="952.558" y1="276.534" x2="904.545" y2="325.164" gradientUnits="userSpaceOnUse">
<stop stop-color="#2B3582"/>
<stop offset="1" stop-color="#150E42"/>
</linearGradient>
<linearGradient id="paint33_linear_7_1829" x1="-491.317" y1="333.881" x2="-495.212" y2="377.671" gradientUnits="userSpaceOnUse">
<stop stop-color="#F9B776"/>
<stop offset="1" stop-color="#F47960"/>
</linearGradient>
<linearGradient id="paint34_linear_7_1829" x1="359.52" y1="153.729" x2="338.081" y2="-67.0575" gradientUnits="userSpaceOnUse">
<stop stop-color="#FDF53F"/>
<stop offset="1" stop-color="#D93C65"/>
</linearGradient>
<linearGradient id="paint35_linear_7_1829" x1="-709.13" y1="458.274" x2="-703.29" y2="438.494" gradientUnits="userSpaceOnUse">
<stop stop-color="#F9B776"/>
<stop offset="1" stop-color="#F47960"/>
</linearGradient>
<linearGradient id="paint36_linear_7_1829" x1="-895.607" y1="736.632" x2="-861.492" y2="755.127" gradientUnits="userSpaceOnUse">
<stop stop-color="#F9B776"/>
<stop offset="1" stop-color="#F47960"/>
</linearGradient>
<linearGradient id="paint37_linear_7_1829" x1="-847.522" y1="691.728" x2="-876.088" y2="738.505" gradientUnits="userSpaceOnUse">
<stop stop-color="#2B3582"/>
<stop offset="1" stop-color="#150E42"/>
</linearGradient>
<linearGradient id="paint38_linear_7_1829" x1="-888.631" y1="730.74" x2="-855.855" y2="754.189" gradientUnits="userSpaceOnUse">
<stop stop-color="#F9B776"/>
<stop offset="1" stop-color="#F47960"/>
</linearGradient>
<linearGradient id="paint39_linear_7_1829" x1="301.211" y1="560.516" x2="395.632" y2="525.334" gradientUnits="userSpaceOnUse">
<stop stop-color="#F9B776"/>
<stop offset="1" stop-color="#F47960"/>
</linearGradient>
<linearGradient id="paint40_linear_7_1829" x1="315.464" y1="520.053" x2="334.414" y2="520.053" gradientUnits="userSpaceOnUse">
<stop stop-color="#2B3582"/>
<stop offset="1" stop-color="#150E42"/>
</linearGradient>
<linearGradient id="paint41_linear_7_1829" x1="374.735" y1="475.824" x2="277.062" y2="478.024" gradientUnits="userSpaceOnUse">
<stop stop-color="#F9B776"/>
<stop offset="1" stop-color="#F47960"/>
</linearGradient>
<linearGradient id="paint42_linear_7_1829" x1="332.967" y1="523.473" x2="355.577" y2="523.473" gradientUnits="userSpaceOnUse">
<stop stop-color="#2B3582"/>
<stop offset="1" stop-color="#150E42"/>
</linearGradient>
<linearGradient id="paint43_linear_7_1829" x1="364.254" y1="371.603" x2="279.809" y2="464.984" gradientUnits="userSpaceOnUse">
<stop stop-color="#CB236D"/>
<stop offset="1" stop-color="#4C246D"/>
</linearGradient>
<linearGradient id="paint44_linear_7_1829" x1="-513.742" y1="350.547" x2="-463.854" y2="350.547" gradientUnits="userSpaceOnUse">
<stop stop-color="#F9B776"/>
<stop offset="1" stop-color="#F47960"/>
</linearGradient>
<linearGradient id="paint45_linear_7_1829" x1="-933.543" y1="331.738" x2="-942.513" y2="340.069" gradientUnits="userSpaceOnUse">
<stop stop-color="#2B3582"/>
<stop offset="1" stop-color="#150E42"/>
</linearGradient>
<linearGradient id="paint46_linear_7_1829" x1="-478.424" y1="338.433" x2="-489.707" y2="358.226" gradientUnits="userSpaceOnUse">
<stop stop-color="#F9B776"/>
<stop offset="1" stop-color="#F47960"/>
</linearGradient>
<linearGradient id="paint47_linear_7_1829" x1="345.294" y1="548.545" x2="509.366" y2="394.996" gradientUnits="userSpaceOnUse">
<stop stop-color="#F895E7"/>
<stop offset="1" stop-color="#B37CFF"/>
</linearGradient>
<linearGradient id="paint48_linear_7_1829" x1="359.962" y1="422.108" x2="393.741" y2="422.108" gradientUnits="userSpaceOnUse">
<stop stop-color="#2B3582"/>
<stop offset="1" stop-color="#150E42"/>
</linearGradient>
<linearGradient id="paint49_linear_7_1829" x1="400.778" y1="381.877" x2="407.83" y2="358.537" gradientUnits="userSpaceOnUse">
<stop stop-color="#F895E7"/>
<stop offset="1" stop-color="#B37CFF"/>
</linearGradient>
<linearGradient id="paint50_linear_7_1829" x1="483.494" y1="464.832" x2="544.276" y2="372.644" gradientUnits="userSpaceOnUse">
<stop stop-color="#A737D5"/>
<stop offset="1" stop-color="#EF497A"/>
</linearGradient>
<linearGradient id="paint51_linear_7_1829" x1="480.802" y1="379.202" x2="506.796" y2="379.202" gradientUnits="userSpaceOnUse">
<stop stop-color="#2B3582"/>
<stop offset="1" stop-color="#150E42"/>
</linearGradient>
</defs>
</svg>
