<svg width="34" height="34" viewBox="0 0 34 34" fill="none" xmlns="http://www.w3.org/2000/svg">
<path d="M9.91798 0.1C11.718 0.017 12.291 0 16.875 0C21.459 0 22.033 0.02 23.831 0.1C25.2321 0.128134 26.6183 0.393211 27.931 0.884C29.0513 1.31839 30.0687 1.98175 30.9181 2.83167C31.7675 3.6816 32.4303 4.69939 32.864 5.82C33.3553 7.13254 33.6207 8.51881 33.649 9.92C33.732 11.72 33.749 12.296 33.749 16.879C33.749 21.462 33.729 22.037 33.649 23.836C33.6214 25.2373 33.356 26.6237 32.864 27.936C32.4313 29.0572 31.7688 30.0755 30.919 30.9254C30.0693 31.7754 29.0511 32.4381 27.93 32.871C26.6174 33.3623 25.2312 33.6277 23.83 33.656C22.03 33.739 21.455 33.756 16.871 33.756C12.287 33.756 11.713 33.736 9.91398 33.656C8.51271 33.6285 7.12631 33.363 5.81398 32.871C4.68784 32.4476 3.6675 31.7839 2.82398 30.926C1.96735 30.0803 1.30562 29.0579 0.884977 27.93C0.394855 26.6172 0.129799 25.231 0.100976 23.83C0.0179765 22.03 0.000976562 21.454 0.000976562 16.871C0.000976562 12.288 0.0209765 11.713 0.100976 9.915C0.12911 8.51389 0.394187 7.12764 0.884977 5.815C1.3101 4.69106 1.97483 3.67316 2.83298 2.832C3.67527 1.97358 4.69461 1.30915 5.81998 0.885C7.13281 0.394878 8.51894 0.129823 9.91998 0.101L9.91798 0.1ZM23.694 3.139C21.914 3.058 21.381 3.039 16.875 3.039C12.369 3.039 11.835 3.056 10.056 3.139C8.98571 3.15141 7.92557 3.34794 6.92198 3.72C6.18907 3.99039 5.52589 4.42124 4.98098 4.981C4.42106 5.52578 3.99019 6.189 3.71998 6.922C3.34792 7.92559 3.15138 8.98573 3.13898 10.056C3.05798 11.836 3.03898 12.369 3.03898 16.875C3.03898 21.381 3.05598 21.915 3.13898 23.694C3.15138 24.7643 3.34792 25.8244 3.71998 26.828C3.9999 27.5555 4.42934 28.2162 4.98054 28.7674C5.53175 29.3186 6.19245 29.7481 6.91998 30.028C7.92357 30.4001 8.98371 30.5966 10.054 30.609C11.834 30.69 12.366 30.709 16.873 30.709C21.38 30.709 21.913 30.692 23.692 30.609C24.7622 30.5966 25.8224 30.4001 26.826 30.028C27.5535 29.7481 28.2142 29.3186 28.7654 28.7674C29.3166 28.2162 29.746 27.5555 30.026 26.828C30.398 25.8244 30.5946 24.7643 30.607 23.694C30.688 21.914 30.707 21.381 30.707 16.875C30.707 12.369 30.69 11.835 30.607 10.056C30.5946 8.98573 30.398 7.92559 30.026 6.922C29.7556 6.18909 29.3247 5.52591 28.765 4.981C28.2216 4.42175 27.5602 3.99093 26.829 3.72C25.8254 3.34794 24.7642 3.15141 23.694 3.139ZM14.72 22.077C15.8358 22.5396 17.0709 22.631 18.2427 22.3378C19.4145 22.0445 20.4609 21.3822 21.2274 20.4486C21.9939 19.515 22.4397 18.3596 22.4992 17.1531C22.5586 15.9467 22.2284 14.7531 21.5574 13.7486C20.8863 12.7442 19.9101 11.9823 18.7728 11.5753C17.6354 11.1684 16.3974 11.138 15.2415 11.4887C14.0856 11.8394 13.0731 12.5525 12.3536 13.5228C11.6341 14.4931 11.2458 15.6691 11.246 16.877C11.246 17.9901 11.5761 19.0782 12.1944 20.0038C12.8128 20.9294 13.6917 21.6509 14.72 22.077ZM10.742 10.742C11.9551 9.52893 13.5006 8.70283 15.1832 8.36816C16.8658 8.03348 18.6098 8.20527 20.1948 8.86178C21.7798 9.5183 23.1344 10.6301 24.0875 12.0565C25.0406 13.4829 25.5494 15.16 25.5494 16.8755C25.5494 18.591 25.0406 20.2681 24.0875 21.6945C23.1344 23.1209 21.7798 24.2327 20.1948 24.8892C18.6098 25.5457 16.8658 25.7175 15.1832 25.3828C13.5006 25.0482 11.9551 24.2221 10.742 23.009C9.9365 22.2035 9.29757 21.2473 8.86165 20.1949C8.42573 19.1425 8.20136 18.0146 8.20136 16.8755C8.20136 15.7364 8.42573 14.6085 8.86165 13.5561C9.29757 12.5037 9.9365 11.5475 10.742 10.742ZM27.473 9.493C27.7699 9.21291 27.9765 8.8506 28.0663 8.45243C28.1561 8.05427 28.1251 7.63835 27.9772 7.25791C27.8293 6.87747 27.5713 6.54981 27.2361 6.31687C26.9009 6.08392 26.5039 5.95628 26.0957 5.95029C25.6876 5.94429 25.287 6.0602 24.9451 6.2832C24.6032 6.5062 24.3356 6.82613 24.1766 7.20206C24.0176 7.57799 23.9744 7.99281 24.0525 8.39345C24.1306 8.79408 24.3264 9.16231 24.615 9.451C24.9923 9.82846 25.5018 10.044 26.0355 10.0518C26.5691 10.0597 27.0848 9.85921 27.473 9.493Z" fill="#8977CC"/>
</svg>
