<svg width="30" height="34" viewBox="0 0 30 34" fill="none" xmlns="http://www.w3.org/2000/svg">
<path d="M26.109 7.21798C25.8813 7.10013 25.6597 6.97097 25.445 6.83098C24.8203 6.41809 24.2475 5.9316 23.739 5.38198C22.7407 4.26479 22.0746 2.89073 21.816 1.41498H21.822C21.7275 0.949906 21.7022 0.473432 21.747 0.000976562H15.947V22.414C15.947 22.714 15.947 23.014 15.935 23.306C15.935 23.342 15.935 23.375 15.929 23.416C15.9311 23.4322 15.9311 23.4487 15.929 23.465V23.475C15.8681 24.279 15.6105 25.0558 15.179 25.7369C14.7474 26.418 14.155 26.9826 13.454 27.381C12.7226 27.7971 11.8954 28.0152 11.054 28.014C9.7486 28.014 8.49667 27.4954 7.57361 26.5724C6.65056 25.6493 6.13199 24.3974 6.13199 23.092C6.13199 21.7866 6.65056 20.5347 7.57361 19.6116C8.49667 18.6885 9.7486 18.17 11.054 18.17C11.5655 18.17 12.0738 18.251 12.56 18.41L12.567 12.51C11.0907 12.3193 9.59089 12.4367 8.16229 12.855C6.73369 13.2733 5.40734 13.9832 4.26699 14.94C3.26796 15.8078 2.42803 16.8434 1.78499 18C0.973504 19.4966 0.534455 21.1667 0.504992 22.869C0.49165 24.1774 0.702011 25.4784 1.12699 26.716V26.731C1.50967 27.7586 2.0399 28.7251 2.70099 29.6C3.41671 30.5108 4.26281 31.311 5.21199 31.975V31.96L5.22699 31.975C6.98527 33.1289 9.04088 33.7473 11.144 33.755C12.661 33.7526 14.1594 33.4213 15.536 32.784C16.895 32.1428 18.1085 31.2304 19.102 30.103C19.9282 29.145 20.5852 28.0534 21.045 26.875C21.4695 25.688 21.7057 24.4419 21.745 23.182V11.285C21.815 11.327 22.753 11.946 22.753 11.946C23.8315 12.5814 24.9939 13.0624 26.206 13.375C27.3707 13.6429 28.5571 13.8055 29.751 13.861V8.10398C28.4814 8.12121 27.2282 7.81675 26.108 7.21898L26.109 7.21798Z" fill="#8977CC"/>
</svg>
