<svg width="34" height="28" viewBox="0 0 34 28" fill="none" xmlns="http://www.w3.org/2000/svg">
<path d="M16.875 0C7.555 0 0 6.253 0 13.966C0 21.679 7.555 27.933 16.875 27.933C26.195 27.933 33.75 21.68 33.75 13.966C33.75 6.252 26.2 0 16.875 0ZM27.575 7.965H24.5C24.1711 6.80028 23.7161 5.67495 23.143 4.609C24.1745 5.08167 25.1399 5.68676 26.015 6.409C26.5823 6.87698 27.1037 7.39801 27.572 7.965H27.575ZM29.798 13.965C29.7978 14.8907 29.6552 15.8108 29.375 16.693H25.151C25.3662 14.8807 25.3662 13.0493 25.151 11.237H29.372C29.654 12.1193 29.7983 13.0398 29.8 13.966L29.798 13.965ZM16.875 24.659C16.532 24.659 15.488 24.101 14.446 22.378C13.9952 21.6155 13.6264 20.8073 13.346 19.967H20.412C20.1316 20.8073 19.7629 21.6155 19.312 22.378C18.263 24.1 17.218 24.659 16.875 24.659ZM12.575 16.694C12.3277 14.8837 12.3277 13.0483 12.575 11.238H21.169C21.4163 13.0483 21.4163 14.8837 21.169 16.694H12.575ZM3.955 13.966C3.95516 13.0403 4.09783 12.1202 4.378 11.238H8.6C8.38481 13.0503 8.38481 14.8817 8.6 16.694H4.378C4.09783 15.8118 3.95516 14.8917 3.955 13.966ZM16.875 3.273C17.218 3.273 18.262 3.831 19.304 5.554C19.7548 6.31653 20.1236 7.12472 20.404 7.965H13.342C13.6224 7.12471 13.9911 6.31652 14.442 5.554C15.488 3.831 16.532 3.273 16.875 3.273ZM10.612 4.609C10.0385 5.67489 9.58314 6.80023 9.254 7.965H6.178C6.64743 7.39645 7.17015 6.87407 7.739 6.405C8.6146 5.6841 9.5804 5.08036 10.612 4.609ZM6.178 19.967H9.254C9.58285 21.1317 10.0379 22.2571 10.611 23.323C9.57953 22.8503 8.61406 22.2452 7.739 21.523C7.17032 21.0552 6.64761 20.5342 6.178 19.967ZM23.139 23.323C23.7135 22.2572 24.1699 21.1319 24.5 19.967H27.576C27.1066 20.5356 26.5839 21.0579 26.015 21.527C25.1385 22.2481 24.1716 22.8519 23.139 23.323Z" fill="#8977CC"/>
</svg>
