<svg width="34" height="32" viewBox="0 0 34 32" fill="none" xmlns="http://www.w3.org/2000/svg">
<path d="M22 0H12C5.37258 0 0 5.37258 0 12V20C0 26.6274 5.37258 32 12 32H22C28.6274 32 34 26.6274 34 20V12C34 5.37258 28.6274 0 22 0Z" fill="#8977CC"/>
<path d="M27.991 7.89223C28.1479 7.75151 28.269 7.57533 28.344 7.37837C28.4191 7.18142 28.446 6.96938 28.4225 6.75992C28.399 6.55046 28.3258 6.34964 28.209 6.17418C28.0922 5.99873 27.9352 5.85372 27.751 5.75123C27.3438 5.4909 26.8632 5.36923 26.3811 5.40437C25.8991 5.43951 25.4412 5.62959 25.076 5.94623L17.041 13.6592L9.00804 5.95123C8.64339 5.63382 8.18587 5.44284 7.70377 5.40679C7.22166 5.37075 6.74083 5.49157 6.33304 5.75123C6.14865 5.85345 5.99137 5.99825 5.87428 6.17357C5.7572 6.34889 5.6837 6.54965 5.65993 6.75913C5.63615 6.9686 5.66278 7.18073 5.7376 7.37783C5.81241 7.57493 5.93325 7.75129 6.09004 7.89223L14.567 16.0322L6.09004 24.1722C5.93325 24.3132 5.81241 24.4895 5.7376 24.6866C5.66278 24.8837 5.63615 25.0959 5.65993 25.3053C5.6837 25.5148 5.7572 25.7156 5.87428 25.8909C5.99137 26.0662 6.14865 26.211 6.33304 26.3132C6.74031 26.5736 7.22084 26.6952 7.70293 26.6601C8.18502 26.625 8.64282 26.4349 9.00804 26.1182L17.04 18.4062L25.072 26.1182C25.4372 26.4349 25.8951 26.625 26.3771 26.6601C26.8592 26.6952 27.3398 26.5736 27.747 26.3132C27.9314 26.211 28.0887 26.0662 28.2058 25.8909C28.3229 25.7156 28.3964 25.5148 28.4201 25.3053C28.4439 25.0959 28.4173 24.8837 28.3425 24.6866C28.2677 24.4895 28.1468 24.3132 27.99 24.1722L19.513 16.0322L27.991 7.89223Z" fill="#F8F7FD"/>
</svg>
